<svg width="454" height="86" viewBox="0 0 454 86" fill="none" xmlns="http://www.w3.org/2000/svg">
<path d="M42.6245 38.646C46.7716 38.7306 50.5168 39.778 53.8599 41.7881C57.2241 43.7982 59.9007 46.4959 61.8896 49.8813C63.8997 53.2668 64.9048 57.0119 64.9048 61.1167C64.9048 65.2638 63.8892 69.0407 61.8579 72.4473C59.8267 75.8538 57.1077 78.5728 53.7012 80.604C50.2946 82.6141 46.5283 83.6191 42.4023 83.6191L0.476074 83.6509C1.132 83.6509 1.66097 83.2912 2.06299 82.5718C2.46501 81.8524 2.77181 80.9531 2.9834 79.874C3.19499 78.7738 3.35368 77.6418 3.45947 76.478C3.48063 76.0972 3.50179 75.7269 3.52295 75.3672V8.68506C3.50179 8.32536 3.48063 7.95508 3.45947 7.57422C3.35368 6.41048 3.19499 5.28906 2.9834 4.20996C2.77181 3.1097 2.46501 2.19987 2.06299 1.48047C1.66097 0.761068 1.132 0.401367 0.476074 0.401367H12.1558L31.5479 0.464844H35.0073C38.6678 0.464844 42.0003 1.3641 45.0049 3.1626C48.0094 4.93994 50.4004 7.33089 52.1777 10.3354C53.9762 13.34 54.8755 16.6619 54.8755 20.3013C54.8755 24.4272 53.7435 28.13 51.4795 31.4097C49.2367 34.6681 46.285 37.0802 42.6245 38.646ZM32.4683 1.73438H14.6948C14.5467 2.00944 14.4198 2.31624 14.314 2.65479C13.8696 4.03011 13.584 5.59587 13.457 7.35205C13.4359 7.52132 13.4147 7.78581 13.3936 8.14551C13.3724 8.48405 13.3512 8.81201 13.3301 9.12939C13.3301 9.44678 13.3195 9.65837 13.2983 9.76416V38.646H33.3569C36.3615 37.6727 38.9535 36.0858 41.1328 33.8853C42.889 32.1291 44.2643 30.0978 45.2588 27.7915C46.2744 25.464 46.7822 22.9673 46.7822 20.3013C46.7822 17.339 46.158 14.5884 44.9097 12.0493C43.6613 9.4891 41.9686 7.32031 39.8315 5.54297C37.6945 3.74447 35.2401 2.47493 32.4683 1.73438ZM14.7266 82.3496H38.8159C42.0321 81.2282 44.825 79.4826 47.1948 77.1128C49.1838 75.1239 50.7495 72.807 51.8921 70.1621C53.0347 67.5173 53.606 64.682 53.606 61.6562C53.606 57.8688 52.7173 54.3988 50.9399 51.2461C49.1838 48.0723 46.8245 45.4909 43.8623 43.502C40.9001 41.4919 37.5464 40.2964 33.8013 39.9155H13.2983C13.2983 39.9155 13.2983 41.6929 13.2983 45.2476C13.3195 48.8022 13.3301 52.8753 13.3301 57.4668C13.3301 62.0371 13.3301 66.0785 13.3301 69.5908C13.3301 73.082 13.3407 74.9652 13.3618 75.2402C13.383 75.7269 13.4147 76.2135 13.457 76.7002C13.584 78.4564 13.8696 80.0221 14.314 81.3975C14.4198 81.7572 14.5573 82.0745 14.7266 82.3496ZM68.4595 69.9717V52.7061V46.5488C68.4595 45.0042 68.4172 43.6606 68.3325 42.5181C68.269 41.3543 68.1738 40.3704 68.0469 39.5664C67.9199 38.7412 67.7718 38.0641 67.6025 37.5352C67.4544 36.985 67.2852 36.5618 67.0947 36.2656C66.9255 35.9482 66.7562 35.7155 66.5869 35.5674C66.4388 35.4193 66.2907 35.3346 66.1426 35.3135C66.0156 35.2712 65.8993 35.2606 65.7935 35.2817C65.7088 35.2817 65.6665 35.2923 65.6665 35.3135L68.4595 33.7583L78.2666 28.3311V52.7061V69.9717V74.7007C78.2878 76.0125 78.3936 77.3879 78.584 78.8267C78.7744 80.2443 79.0812 81.4715 79.5044 82.5083C79.9487 83.5239 80.5623 84.0317 81.3452 84.0317H65.4126C66.132 84.0317 66.7033 83.6086 67.1265 82.7622C67.5496 81.8947 67.8564 80.8368 68.0469 79.5884C68.2585 78.3188 68.396 77.0493 68.4595 75.7798V69.9717ZM71.9507 21.8564C70.3638 21.8564 68.999 21.2957 67.8564 20.1743C66.735 19.0317 66.1743 17.667 66.1743 16.0801C66.1743 14.4932 66.735 13.139 67.8564 12.0176C68.999 10.875 70.3638 10.3037 71.9507 10.3037C73.5376 10.3037 74.8918 10.875 76.0132 12.0176C77.1558 13.139 77.7271 14.4932 77.7271 16.0801C77.7271 17.667 77.1558 19.0317 76.0132 20.1743C74.8918 21.2957 73.5376 21.8564 71.9507 21.8564ZM127.524 65.0205C127.524 65.0205 127.725 65.0205 128.127 65.0205C128.529 65.0205 129.016 65.0205 129.587 65.0205C130.18 65.0205 130.741 65.0205 131.27 65.0205C131.799 65.0205 132.201 65.0205 132.476 65.0205C131.46 68.3001 129.926 71.3047 127.874 74.0342C125.821 76.7637 123.324 79.0277 120.383 80.8262C115.178 83.8307 109.74 84.8887 104.07 84C98.4204 83.1113 93.5116 80.5088 89.3433 76.1924C85.3442 71.8125 82.8792 66.7344 81.9482 60.958C81.0173 55.1816 81.6943 49.5745 83.9795 44.1367C83.9795 44.1156 83.9795 44.105 83.9795 44.105C86.2646 38.646 89.8934 34.319 94.8657 31.124C97.3413 29.6006 100.018 28.5321 102.896 27.9185C104.482 27.6222 106.059 27.4847 107.625 27.5059C109.211 27.527 110.798 27.6434 112.385 27.855V27.8867C117.548 28.9658 121.938 31.3568 125.557 35.0596C129.175 38.7624 131.672 43.1105 133.047 48.104C132.497 48.104 130.349 48.104 126.604 48.104C122.859 48.104 118.542 48.104 113.655 48.104C108.788 48.104 104.292 48.104 100.166 48.104C96.0612 48.104 93.2048 48.104 91.5967 48.104C91.5755 52.2723 92.1891 56.3454 93.4375 60.3232C93.4375 60.3232 93.4481 60.3656 93.4692 60.4502C93.4904 60.5348 93.5221 60.6406 93.5645 60.7676C93.6068 60.8734 93.6491 60.9897 93.6914 61.1167C93.7337 61.2437 93.7655 61.3494 93.7866 61.4341C93.8078 61.4976 93.8184 61.5293 93.8184 61.5293C94.8128 64.4704 96.1247 67.2739 97.7539 69.9399C99.4043 72.606 101.414 74.9546 103.784 76.9858C105.688 78.6362 107.868 79.874 110.322 80.6992C112.777 81.5244 115.252 81.5138 117.749 80.6675C118.003 80.5617 118.267 80.4559 118.542 80.3501C119.304 79.9692 120.034 79.5461 120.732 79.0806C124.52 76.0972 126.784 71.4105 127.524 65.0205ZM91.6602 46.8345H126.858C125.631 42.4546 123.525 38.5508 120.542 35.123C119.251 33.6419 117.781 32.3618 116.13 31.2827C114.48 30.2036 112.681 29.4736 110.735 29.0928C106.863 28.4157 103.149 28.8918 99.5947 30.521C97.6693 31.5366 96.1353 32.9437 94.9927 34.7422C93.8713 36.5195 93.0461 38.4767 92.5171 40.6138C92.0093 42.7297 91.7236 44.8032 91.6602 46.8345ZM171.704 84.0317C172.424 84.0317 172.995 83.6086 173.418 82.7622C173.841 81.8947 174.148 80.8368 174.338 79.5884C174.55 78.3188 174.688 77.0493 174.751 75.7798V38.7412C174.751 36.7523 174.465 35.1442 173.894 33.917C173.323 32.6686 172.582 31.7165 171.672 31.0605C170.784 30.4046 169.832 29.9603 168.816 29.7275C167.8 29.4736 166.838 29.3573 165.928 29.3784C165.018 29.3784 164.256 29.4313 163.643 29.5371C160.85 30.0449 158.374 30.7643 156.216 31.6953C154.058 32.6051 152.238 33.5361 150.757 34.4883C148.916 35.6732 147.456 36.7629 146.377 37.7573V74.7007C146.398 76.0125 146.504 77.3879 146.694 78.8267C146.885 80.2443 147.192 81.4715 147.615 82.5083C148.059 83.5239 148.673 84.0317 149.456 84.0317H133.523C134.242 84.0317 134.814 83.6086 135.237 82.7622C135.66 81.8947 135.967 80.8368 136.157 79.5884C136.369 78.3188 136.506 77.0493 136.57 75.7798V46.5488C136.57 45.0042 136.528 43.6606 136.443 42.5181C136.379 41.3543 136.284 40.3704 136.157 39.5664C136.03 38.7412 135.882 38.0641 135.713 37.5352C135.565 36.985 135.396 36.5618 135.205 36.2656C135.036 35.9482 134.867 35.7155 134.697 35.5674C134.549 35.4193 134.401 35.3346 134.253 35.3135C134.126 35.2712 134.01 35.2606 133.904 35.2817C133.819 35.2817 133.777 35.2923 133.777 35.3135L136.57 33.7583L146.377 28.3311V36.0752C147.371 35.25 148.588 34.3719 150.027 33.4409C152.079 32.0868 154.745 30.8278 158.025 29.6641C161.305 28.4792 165.134 27.8338 169.514 27.728C171.44 27.7069 173.185 27.9079 174.751 28.3311C177.29 29.0293 179.364 30.2882 180.972 32.1079C182.326 33.7371 183.257 35.4722 183.765 37.313C184.272 39.1326 184.526 40.7619 184.526 42.2007C184.548 42.8354 184.548 43.3856 184.526 43.8511V74.7007C184.569 76.0125 184.685 77.3879 184.875 78.8267C185.066 80.2443 185.373 81.4715 185.796 82.5083C186.24 83.5239 186.854 84.0317 187.637 84.0317H171.704ZM242.544 28.0137H243.972L217.534 83.8413H212.266L188.018 32.6157C187.277 31.3462 186.505 30.2671 185.701 29.3784C184.897 28.4686 184.114 28.0137 183.352 28.0137H196.65L219.597 76.478L242.544 28.0137ZM285.898 65.0205C285.898 65.0205 286.099 65.0205 286.501 65.0205C286.903 65.0205 287.39 65.0205 287.961 65.0205C288.554 65.0205 289.115 65.0205 289.644 65.0205C290.173 65.0205 290.575 65.0205 290.85 65.0205C289.834 68.3001 288.3 71.3047 286.248 74.0342C284.195 76.7637 281.698 79.0277 278.757 80.8262C273.552 83.8307 268.114 84.8887 262.444 84C256.794 83.1113 251.886 80.5088 247.717 76.1924C243.718 71.8125 241.253 66.7344 240.322 60.958C239.391 55.1816 240.068 49.5745 242.354 44.1367C242.354 44.1156 242.354 44.105 242.354 44.105C244.639 38.646 248.267 34.319 253.24 31.124C255.715 29.6006 258.392 28.5321 261.27 27.9185C262.856 27.6222 264.433 27.4847 265.999 27.5059C267.585 27.527 269.172 27.6434 270.759 27.855V27.8867C275.922 28.9658 280.312 31.3568 283.931 35.0596C287.549 38.7624 290.046 43.1105 291.421 48.104C290.871 48.104 288.723 48.104 284.978 48.104C281.233 48.104 276.917 48.104 272.029 48.104C267.162 48.104 262.666 48.104 258.54 48.104C254.435 48.104 251.579 48.104 249.971 48.104C249.95 52.2723 250.563 56.3454 251.812 60.3232C251.812 60.3232 251.822 60.3656 251.843 60.4502C251.864 60.5348 251.896 60.6406 251.938 60.7676C251.981 60.8734 252.023 60.9897 252.065 61.1167C252.108 61.2437 252.139 61.3494 252.161 61.4341C252.182 61.4976 252.192 61.5293 252.192 61.5293C253.187 64.4704 254.499 67.2739 256.128 69.9399C257.778 72.606 259.788 74.9546 262.158 76.9858C264.062 78.6362 266.242 79.874 268.696 80.6992C271.151 81.5244 273.626 81.5138 276.123 80.6675C276.377 80.5617 276.641 80.4559 276.917 80.3501C277.678 79.9692 278.408 79.5461 279.106 79.0806C282.894 76.0972 285.158 71.4105 285.898 65.0205ZM250.034 46.8345H285.232C284.005 42.4546 281.899 38.5508 278.916 35.123C277.625 33.6419 276.155 32.3618 274.504 31.2827C272.854 30.2036 271.056 29.4736 269.109 29.0928C265.237 28.4157 261.523 28.8918 257.969 30.521C256.043 31.5366 254.509 32.9437 253.367 34.7422C252.245 36.5195 251.42 38.4767 250.891 40.6138C250.383 42.7297 250.098 44.8032 250.034 46.8345ZM330.078 84.0317C330.798 84.0317 331.369 83.6086 331.792 82.7622C332.215 81.8947 332.522 80.8368 332.712 79.5884C332.924 78.3188 333.062 77.0493 333.125 75.7798V38.7412C333.125 36.7523 332.839 35.1442 332.268 33.917C331.697 32.6686 330.956 31.7165 330.046 31.0605C329.158 30.4046 328.206 29.9603 327.19 29.7275C326.174 29.4736 325.212 29.3573 324.302 29.3784C323.392 29.3784 322.63 29.4313 322.017 29.5371C319.224 30.0449 316.748 30.7643 314.59 31.6953C312.432 32.6051 310.612 33.5361 309.131 34.4883C307.29 35.6732 305.83 36.7629 304.751 37.7573V74.7007C304.772 76.0125 304.878 77.3879 305.068 78.8267C305.259 80.2443 305.566 81.4715 305.989 82.5083C306.433 83.5239 307.047 84.0317 307.83 84.0317H291.897C292.616 84.0317 293.188 83.6086 293.611 82.7622C294.034 81.8947 294.341 80.8368 294.531 79.5884C294.743 78.3188 294.88 77.0493 294.944 75.7798V46.5488C294.944 45.0042 294.902 43.6606 294.817 42.5181C294.753 41.3543 294.658 40.3704 294.531 39.5664C294.404 38.7412 294.256 38.0641 294.087 37.5352C293.939 36.985 293.77 36.5618 293.579 36.2656C293.41 35.9482 293.241 35.7155 293.071 35.5674C292.923 35.4193 292.775 35.3346 292.627 35.3135C292.5 35.2712 292.384 35.2606 292.278 35.2817C292.193 35.2817 292.151 35.2923 292.151 35.3135L294.944 33.7583L304.751 28.3311V36.0752C305.745 35.25 306.962 34.3719 308.401 33.4409C310.453 32.0868 313.119 30.8278 316.399 29.6641C319.679 28.4792 323.508 27.8338 327.888 27.728C329.814 27.7069 331.559 27.9079 333.125 28.3311C335.664 29.0293 337.738 30.2882 339.346 32.1079C340.7 33.7371 341.631 35.4722 342.139 37.313C342.646 39.1326 342.9 40.7619 342.9 42.2007C342.922 42.8354 342.922 43.3856 342.9 43.8511V74.7007C342.943 76.0125 343.059 77.3879 343.25 78.8267C343.44 80.2443 343.747 81.4715 344.17 82.5083C344.614 83.5239 345.228 84.0317 346.011 84.0317H330.078ZM398.442 78.2554C398.887 79.1652 399.849 79.4191 401.331 79.0171C401.246 79.2075 401.077 79.5249 400.823 79.9692C400.569 80.4136 400.294 80.9108 399.998 81.4609C399.701 82.0322 399.416 82.5612 399.141 83.0479C398.887 83.5133 398.707 83.8413 398.601 84.0317C398.601 84.0317 398.368 84.0317 397.903 84.0317C397.458 84.0529 396.898 84.0635 396.221 84.0635C395.544 84.0846 394.867 84.0846 394.189 84.0635C393.534 84.0635 392.983 84.0212 392.539 83.9365C390.592 83.6615 389.238 82.6353 388.477 80.8579C388.075 79.5249 387.916 78.1496 388 76.7319C388 76.5627 388 76.404 388 76.2559C384.53 79.1758 380.627 81.3446 376.289 82.7622C373.665 83.672 370.894 84.2856 367.974 84.603C365.075 84.9416 362.271 84.7617 359.563 84.0635C356.58 83.196 354.273 81.609 352.644 79.3027C351.036 76.9964 350.094 74.341 349.819 71.3364C349.629 68.4588 349.587 65.5495 349.692 62.6084C349.735 61.2965 349.756 60.0059 349.756 58.7363C349.756 53.891 349.756 49.0456 349.756 44.2002C349.756 44.0098 349.724 43.3962 349.661 42.3594C349.597 41.3014 349.47 40.1694 349.28 38.9634C349.089 37.7573 348.814 36.7734 348.455 36.0117C348.095 35.2288 347.608 34.9644 346.995 35.2183C349.957 33.589 352.909 31.9492 355.85 30.2988C357.098 29.6006 358.346 28.9129 359.595 28.2358C359.595 31.7905 359.595 35.3558 359.595 38.9316C359.595 42.6344 359.595 46.3372 359.595 50.04C359.595 53.7217 359.595 57.4139 359.595 61.1167C359.595 64.7983 359.595 68.4906 359.595 72.1934C359.595 72.4896 359.595 72.7858 359.595 73.082C359.574 73.8226 359.584 74.5632 359.626 75.3037C359.796 77.1022 360.367 78.668 361.34 80.001C362.335 81.3128 363.721 82.2121 365.498 82.6987C367.106 83.0796 368.725 83.1536 370.354 82.9209C372.004 82.6882 373.602 82.3073 375.146 81.7783C379.907 80.2972 384.171 77.9168 387.937 74.6372C387.937 73.9178 387.937 71.8231 387.937 68.353C387.937 64.8618 387.937 61.0955 387.937 57.0542C387.937 53.0129 387.937 49.638 387.937 46.9297C387.937 46.4219 387.905 45.4909 387.842 44.1367C387.799 42.7614 387.683 41.3332 387.493 39.8521C387.323 38.3709 387.048 37.1649 386.667 36.2339C386.287 35.3029 385.779 34.9644 385.144 35.2183C388.297 33.4832 391.449 31.7376 394.602 29.9814C395.66 29.4102 396.707 28.8283 397.744 28.2358C397.744 28.9341 397.744 30.9971 397.744 34.4248C397.765 37.8525 397.776 41.8092 397.776 46.2949C397.776 50.7594 397.776 55.0653 397.776 59.2124C397.776 62.6401 397.776 65.5072 397.776 67.8135C397.776 70.1198 397.776 71.3576 397.776 71.5269C397.776 71.95 397.765 72.4049 397.744 72.8916C397.702 73.8226 397.702 74.7642 397.744 75.7163C397.808 76.6685 398.04 77.5148 398.442 78.2554ZM447.51 65.0205C447.51 65.0205 447.711 65.0205 448.113 65.0205C448.515 65.0205 449.001 65.0205 449.573 65.0205C450.165 65.0205 450.726 65.0205 451.255 65.0205C451.784 65.0205 452.186 65.0205 452.461 65.0205C451.445 68.3001 449.911 71.3047 447.859 74.0342C445.806 76.7637 443.31 79.0277 440.369 80.8262C435.164 83.8307 429.726 84.8887 424.055 84C418.406 83.1113 413.497 80.5088 409.329 76.1924C405.33 71.8125 402.865 66.7344 401.934 60.958C401.003 55.1816 401.68 49.5745 403.965 44.1367C403.965 44.1156 403.965 44.105 403.965 44.105C406.25 38.646 409.879 34.319 414.851 31.124C417.327 29.6006 420.003 28.5321 422.881 27.9185C424.468 27.6222 426.044 27.4847 427.61 27.5059C429.197 27.527 430.784 27.6434 432.371 27.855V27.8867C437.533 28.9658 441.924 31.3568 445.542 35.0596C449.16 38.7624 451.657 43.1105 453.032 48.104C452.482 48.104 450.334 48.104 446.589 48.104C442.844 48.104 438.528 48.104 433.64 48.104C428.774 48.104 424.277 48.104 420.151 48.104C416.047 48.104 413.19 48.104 411.582 48.104C411.561 52.2723 412.174 56.3454 413.423 60.3232C413.423 60.3232 413.433 60.3656 413.455 60.4502C413.476 60.5348 413.507 60.6406 413.55 60.7676C413.592 60.8734 413.634 60.9897 413.677 61.1167C413.719 61.2437 413.751 61.3494 413.772 61.4341C413.793 61.4976 413.804 61.5293 413.804 61.5293C414.798 64.4704 416.11 67.2739 417.739 69.9399C419.39 72.606 421.4 74.9546 423.77 76.9858C425.674 78.6362 427.853 79.874 430.308 80.6992C432.762 81.5244 435.238 81.5138 437.734 80.6675C437.988 80.5617 438.253 80.4559 438.528 80.3501C439.29 79.9692 440.02 79.5461 440.718 79.0806C444.505 76.0972 446.769 71.4105 447.51 65.0205ZM411.646 46.8345H446.843C445.616 42.4546 443.511 38.5508 440.527 35.123C439.237 33.6419 437.766 32.3618 436.116 31.2827C434.465 30.2036 432.667 29.4736 430.72 29.0928C426.848 28.4157 423.135 28.8918 419.58 30.521C417.655 31.5366 416.121 32.9437 414.978 34.7422C413.857 36.5195 413.031 38.4767 412.502 40.6138C411.995 42.7297 411.709 44.8032 411.646 46.8345Z" fill="#2A343E"/>
</svg>
