<svg width="378" height="87" viewBox="0 0 378 87" fill="none" xmlns="http://www.w3.org/2000/svg">
<path d="M56.5259 11.5732C60.0171 15.0645 62.6831 19.0423 64.5239 23.5068C66.3647 27.9502 67.2852 32.6263 67.2852 37.5352V47.2788C67.2852 52.1665 66.3647 56.8426 64.5239 61.3071C62.6831 65.7505 60.0171 69.7178 56.5259 73.209C50.3898 79.2604 43.09 82.7728 34.6265 83.7461C34.1398 83.7884 32.172 83.8307 28.7231 83.873C25.2954 83.8942 21.4022 83.9259 17.0435 83.9683C12.7059 83.9894 8.85498 84.0106 5.49072 84.0317C2.14762 84.0529 0.476074 84.0635 0.476074 84.0635C1.132 84.0635 1.66097 83.7038 2.06299 82.9844C2.46501 82.265 2.77181 81.3657 2.9834 80.2866C3.21615 79.1864 3.37484 78.0438 3.45947 76.8589C3.48063 76.4146 3.49121 72.7118 3.49121 65.7505C3.49121 58.7681 3.49121 50.9922 3.49121 42.4229C3.49121 33.8535 3.49121 26.0882 3.49121 19.127C3.49121 12.1445 3.48063 8.43115 3.45947 7.98682C3.37484 6.80192 3.21615 5.66992 2.9834 4.59082C2.77181 3.51172 2.46501 2.61247 2.06299 1.89307C1.66097 1.17367 1.132 0.813965 0.476074 0.813965H30.564C32.8914 0.813965 35.1766 1.02555 37.4194 1.44873C44.7404 2.84521 51.1092 6.22005 56.5259 11.5732ZM28.0249 2.0835H14.7583C14.7371 2.0835 14.7054 2.12581 14.6631 2.21045C14.6419 2.27393 14.6102 2.36914 14.5679 2.49609C14.5256 2.60189 14.4727 2.70768 14.4092 2.81348C14.3669 2.91927 14.3351 3.00391 14.314 3.06738C13.8696 4.44271 13.584 5.99788 13.457 7.73291C13.4147 8.24072 13.383 8.73796 13.3618 9.22461C13.3618 9.62663 13.3618 13.0861 13.3618 19.603C13.3618 26.0988 13.3512 33.6208 13.3301 42.1689C13.3301 50.696 13.3301 58.2814 13.3301 64.9253C13.3301 71.5692 13.3301 74.8911 13.3301 74.8911C13.3301 74.9757 13.3407 75.1662 13.3618 75.4624C13.383 75.7586 13.4041 76.0654 13.4253 76.3828C13.4465 76.679 13.457 76.9224 13.457 77.1128C13.584 78.8478 13.8696 80.403 14.314 81.7783C14.3563 81.9053 14.4092 82.0534 14.4727 82.2227C14.5361 82.3708 14.589 82.4977 14.6313 82.6035C14.6948 82.7093 14.7371 82.7622 14.7583 82.7622L30.564 82.6987C31.1987 82.6987 31.8335 82.6776 32.4683 82.6353C33.1242 82.5929 33.6849 82.5506 34.1504 82.5083C34.637 82.466 34.9121 82.4448 34.9756 82.4448C36.5202 82.1274 37.8215 81.6831 38.8794 81.1118C39.9373 80.5194 40.6038 80.1068 40.8789 79.874C40.9001 79.8529 40.9106 79.8423 40.9106 79.8423C40.9318 79.8211 40.9424 79.8105 40.9424 79.8105C40.9635 79.7894 40.9741 79.7788 40.9741 79.7788C40.9953 79.7788 41.0059 79.7788 41.0059 79.7788C44.0316 77.409 46.6447 74.616 48.8452 71.3999C51.0669 68.1626 52.7913 64.6079 54.0186 60.7358C55.2458 56.8638 55.8594 52.7801 55.8594 48.4849V38.043C55.8594 33.1553 55.0659 28.5426 53.479 24.2051C51.9132 19.8464 49.7233 15.9531 46.9092 12.5254C44.0951 9.09766 40.8049 6.27295 37.0386 4.05127C35.8748 3.4165 34.7217 2.96159 33.5791 2.68652C32.4577 2.41146 31.5161 2.24219 30.7544 2.17871C30.7544 2.15755 30.7544 2.15755 30.7544 2.17871C29.8869 2.11523 28.9771 2.0835 28.0249 2.0835ZM126.128 47.2788C128.498 54.5575 128.022 61.6562 124.7 68.5752C121.208 75.3883 115.845 80.0645 108.608 82.6035C101.33 84.9733 94.231 84.4972 87.312 81.1753C80.4989 77.7052 75.8228 72.3521 73.2837 65.1157C70.9139 57.8159 71.39 50.7171 74.7119 43.8193C78.182 36.985 83.5352 32.2983 90.7715 29.7593C98.0713 27.3895 105.17 27.8656 112.068 31.1875C118.902 34.6787 123.589 40.0425 126.128 47.2788ZM110.576 80.4771C114.067 78.1284 116.268 74.2458 117.178 68.8291C118.109 63.3913 117.516 57.3927 115.4 50.8335C113.158 44.4858 110.068 39.4395 106.133 35.6943C102.218 31.9281 98.1877 30.0872 94.0405 30.1719C93.0884 30.3835 92.1362 30.6479 91.1841 30.9653C90.3166 31.2616 89.4808 31.6001 88.6768 31.981C85.2913 34.3931 83.1649 38.2969 82.2974 43.6924C81.4299 49.0667 82.0435 54.9701 84.1382 61.4023C86.4233 67.9193 89.5866 73.0609 93.6279 76.8271C97.6904 80.5934 101.827 82.3285 106.038 82.0322C106.778 81.863 107.508 81.6514 108.228 81.3975C109.032 81.1224 109.814 80.8156 110.576 80.4771ZM179.702 78.2554C180.146 79.1652 181.109 79.4191 182.59 79.0171C182.506 79.2075 182.336 79.5249 182.083 79.9692C181.829 80.4136 181.554 80.9108 181.257 81.4609C180.961 82.0322 180.675 82.5612 180.4 83.0479C180.146 83.5133 179.967 83.8413 179.861 84.0317C179.861 84.0317 179.628 84.0317 179.163 84.0317C178.718 84.0529 178.158 84.0635 177.48 84.0635C176.803 84.0846 176.126 84.0846 175.449 84.0635C174.793 84.0635 174.243 84.0212 173.799 83.9365C171.852 83.6615 170.498 82.6353 169.736 80.8579C169.334 79.5249 169.176 78.1496 169.26 76.7319C169.26 76.5627 169.26 76.404 169.26 76.2559C165.79 79.1758 161.886 81.3446 157.549 82.7622C154.925 83.672 152.153 84.2856 149.233 84.603C146.335 84.9416 143.531 84.7617 140.823 84.0635C137.839 83.196 135.533 81.609 133.904 79.3027C132.296 76.9964 131.354 74.341 131.079 71.3364C130.889 68.4588 130.846 65.5495 130.952 62.6084C130.994 61.2965 131.016 60.0059 131.016 58.7363C131.016 53.891 131.016 49.0456 131.016 44.2002C131.016 44.0098 130.984 43.3962 130.92 42.3594C130.857 41.3014 130.73 40.1694 130.54 38.9634C130.349 37.7573 130.074 36.7734 129.714 36.0117C129.355 35.2288 128.868 34.9644 128.254 35.2183C131.217 33.589 134.168 31.9492 137.109 30.2988C138.358 29.6006 139.606 28.9129 140.854 28.2358C140.854 31.7905 140.854 35.3558 140.854 38.9316C140.854 42.6344 140.854 46.3372 140.854 50.04C140.854 53.7217 140.854 57.4139 140.854 61.1167C140.854 64.7983 140.854 68.4906 140.854 72.1934C140.854 72.4896 140.854 72.7858 140.854 73.082C140.833 73.8226 140.844 74.5632 140.886 75.3037C141.056 77.1022 141.627 78.668 142.6 80.001C143.595 81.3128 144.98 82.2121 146.758 82.6987C148.366 83.0796 149.985 83.1536 151.614 82.9209C153.264 82.6882 154.862 82.3073 156.406 81.7783C161.167 80.2972 165.431 77.9168 169.197 74.6372C169.197 73.9178 169.197 71.8231 169.197 68.353C169.197 64.8618 169.197 61.0955 169.197 57.0542C169.197 53.0129 169.197 49.638 169.197 46.9297C169.197 46.4219 169.165 45.4909 169.102 44.1367C169.059 42.7614 168.943 41.3332 168.752 39.8521C168.583 38.3709 168.308 37.1649 167.927 36.2339C167.546 35.3029 167.039 34.9644 166.404 35.2183C169.556 33.4832 172.709 31.7376 175.862 29.9814C176.92 29.4102 177.967 28.8283 179.004 28.2358C179.004 28.9341 179.004 30.9971 179.004 34.4248C179.025 37.8525 179.036 41.8092 179.036 46.2949C179.036 50.7594 179.036 55.0653 179.036 59.2124C179.036 62.6401 179.036 65.5072 179.036 67.8135C179.036 70.1198 179.036 71.3576 179.036 71.5269C179.036 71.95 179.025 72.4049 179.004 72.8916C178.962 73.8226 178.962 74.7642 179.004 75.7163C179.067 76.6685 179.3 77.5148 179.702 78.2554ZM233.752 65.3379C232.419 69.612 230.229 73.3783 227.183 76.6367C224.136 79.8952 220.465 82.2227 216.169 83.6191C212.509 84.7194 208.817 84.9627 205.093 84.3491C201.369 83.7355 197.931 82.3285 194.778 80.1279C191.371 77.6735 188.663 74.616 186.653 70.9556C184.643 67.2951 183.437 63.3807 183.035 59.2124C182.654 55.0229 183.088 50.9287 184.336 46.9297C185.605 42.9307 187.637 39.3548 190.43 36.2021C193.18 33.1764 196.46 30.9019 200.269 29.3784C202.469 28.5532 204.67 28.0771 206.87 27.9502C209.092 27.8021 211.356 27.8761 213.662 28.1724V28.2041C217.174 28.9023 220.391 30.2988 223.311 32.3936C226.23 34.4671 228.664 37.0062 230.61 40.0107C230.589 40.0107 230.526 40.0319 230.42 40.0742C229.15 40.7725 227.881 41.4601 226.611 42.1372C224.622 38.3709 221.978 35.1654 218.677 32.5205C215.715 30.2142 212.361 29.1034 208.616 29.188C206.838 29.188 205.093 29.4207 203.379 29.8862C201.665 30.3517 200.089 31.1452 198.65 32.2666C197.74 33.0283 196.968 33.9382 196.333 34.9961C195.698 36.0329 195.169 37.1014 194.746 38.2017C193.434 41.6082 192.799 45.1629 192.842 48.8657C192.905 52.5685 193.434 56.1655 194.429 59.6567C195.339 62.9575 196.65 66.1102 198.364 69.1147C200.078 72.1193 202.215 74.7642 204.775 77.0493C206.743 78.8055 208.965 80.1068 211.44 80.9531C213.916 81.7783 216.444 81.7889 219.026 80.9849C219.28 80.8791 219.544 80.7733 219.819 80.6675C220.581 80.2866 221.311 79.8634 222.009 79.3979C225.797 76.4146 228.05 71.7279 228.77 65.3379H233.752ZM281.011 65.0205C281.011 65.0205 281.212 65.0205 281.614 65.0205C282.016 65.0205 282.502 65.0205 283.074 65.0205C283.666 65.0205 284.227 65.0205 284.756 65.0205C285.285 65.0205 285.687 65.0205 285.962 65.0205C284.946 68.3001 283.412 71.3047 281.36 74.0342C279.307 76.7637 276.811 79.0277 273.87 80.8262C268.665 83.8307 263.227 84.8887 257.556 84C251.907 83.1113 246.998 80.5088 242.83 76.1924C238.831 71.8125 236.366 66.7344 235.435 60.958C234.504 55.1816 235.181 49.5745 237.466 44.1367C237.466 44.1156 237.466 44.105 237.466 44.105C239.751 38.646 243.38 34.319 248.352 31.124C250.828 29.6006 253.504 28.5321 256.382 27.9185C257.969 27.6222 259.545 27.4847 261.111 27.5059C262.698 27.527 264.285 27.6434 265.872 27.855V27.8867C271.034 28.9658 275.425 31.3568 279.043 35.0596C282.661 38.7624 285.158 43.1105 286.533 48.104C285.983 48.104 283.835 48.104 280.09 48.104C276.345 48.104 272.029 48.104 267.141 48.104C262.275 48.104 257.778 48.104 253.652 48.104C249.548 48.104 246.691 48.104 245.083 48.104C245.062 52.2723 245.675 56.3454 246.924 60.3232C246.924 60.3232 246.934 60.3656 246.956 60.4502C246.977 60.5348 247.008 60.6406 247.051 60.7676C247.093 60.8734 247.135 60.9897 247.178 61.1167C247.22 61.2437 247.252 61.3494 247.273 61.4341C247.294 61.4976 247.305 61.5293 247.305 61.5293C248.299 64.4704 249.611 67.2739 251.24 69.9399C252.891 72.606 254.901 74.9546 257.271 76.9858C259.175 78.6362 261.354 79.874 263.809 80.6992C266.263 81.5244 268.739 81.5138 271.235 80.6675C271.489 80.5617 271.754 80.4559 272.029 80.3501C272.791 79.9692 273.521 79.5461 274.219 79.0806C278.006 76.0972 280.27 71.4105 281.011 65.0205ZM245.146 46.8345H280.344C279.117 42.4546 277.012 38.5508 274.028 35.123C272.738 33.6419 271.267 32.3618 269.617 31.2827C267.966 30.2036 266.168 29.4736 264.221 29.0928C260.349 28.4157 256.636 28.8918 253.081 30.521C251.156 31.5366 249.622 32.9437 248.479 34.7422C247.358 36.5195 246.532 38.4767 246.003 40.6138C245.496 42.7297 245.21 44.8032 245.146 46.8345ZM338.457 78.2554C338.901 79.1652 339.864 79.4191 341.345 79.0171C341.261 79.2075 341.091 79.5249 340.837 79.9692C340.583 80.4136 340.308 80.9108 340.012 81.4609C339.716 82.0322 339.43 82.5612 339.155 83.0479C338.901 83.5133 338.722 83.8413 338.616 84.0317C338.616 84.0317 338.383 84.0317 337.917 84.0317C337.473 84.0529 336.912 84.0635 336.235 84.0635C335.558 84.0846 334.881 84.0846 334.204 84.0635C333.548 84.0635 332.998 84.0212 332.554 83.9365C330.607 83.6615 329.253 82.6353 328.491 80.8579C328.089 79.5249 327.931 78.1496 328.015 76.7319C328.015 76.5627 328.015 76.404 328.015 76.2559C324.545 79.1758 320.641 81.3446 316.304 82.7622C313.68 83.672 310.908 84.2856 307.988 84.603C305.09 84.9416 302.286 84.7617 299.578 84.0635C296.594 83.196 294.288 81.609 292.659 79.3027C291.051 76.9964 290.109 74.341 289.834 71.3364C289.644 68.4588 289.601 65.5495 289.707 62.6084C289.749 61.2965 289.771 60.0059 289.771 58.7363C289.771 53.891 289.771 49.0456 289.771 44.2002C289.771 44.0098 289.739 43.3962 289.675 42.3594C289.612 41.3014 289.485 40.1694 289.294 38.9634C289.104 37.7573 288.829 36.7734 288.469 36.0117C288.11 35.2288 287.623 34.9644 287.009 35.2183C289.972 33.589 292.923 31.9492 295.864 30.2988C297.113 29.6006 298.361 28.9129 299.609 28.2358C299.609 31.7905 299.609 35.3558 299.609 38.9316C299.609 42.6344 299.609 46.3372 299.609 50.04C299.609 53.7217 299.609 57.4139 299.609 61.1167C299.609 64.7983 299.609 68.4906 299.609 72.1934C299.609 72.4896 299.609 72.7858 299.609 73.082C299.588 73.8226 299.599 74.5632 299.641 75.3037C299.81 77.1022 300.382 78.668 301.355 80.001C302.349 81.3128 303.735 82.2121 305.513 82.6987C307.121 83.0796 308.739 83.1536 310.369 82.9209C312.019 82.6882 313.617 82.3073 315.161 81.7783C319.922 80.2972 324.185 77.9168 327.952 74.6372C327.952 73.9178 327.952 71.8231 327.952 68.353C327.952 64.8618 327.952 61.0955 327.952 57.0542C327.952 53.0129 327.952 49.638 327.952 46.9297C327.952 46.4219 327.92 45.4909 327.856 44.1367C327.814 42.7614 327.698 41.3332 327.507 39.8521C327.338 38.3709 327.063 37.1649 326.682 36.2339C326.301 35.3029 325.793 34.9644 325.159 35.2183C328.311 33.4832 331.464 31.7376 334.617 29.9814C335.675 29.4102 336.722 28.8283 337.759 28.2358C337.759 28.9341 337.759 30.9971 337.759 34.4248C337.78 37.8525 337.791 41.8092 337.791 46.2949C337.791 50.7594 337.791 55.0653 337.791 59.2124C337.791 62.6401 337.791 65.5072 337.791 67.8135C337.791 70.1198 337.791 71.3576 337.791 71.5269C337.791 71.95 337.78 72.4049 337.759 72.8916C337.716 73.8226 337.716 74.7642 337.759 75.7163C337.822 76.6685 338.055 77.5148 338.457 78.2554ZM369.465 30.521C372.068 29.3149 374.713 28.7225 377.4 28.7437L374.48 37.2495C374.48 37.2495 373.983 37.1543 372.988 36.9639C372.015 36.7734 370.777 36.6676 369.275 36.6465C367.773 36.6042 366.207 36.8263 364.578 37.313C362.97 37.7785 361.488 38.646 360.134 39.9155C358.801 41.6929 357.881 43.0365 357.373 43.9463C357.373 43.9463 357.362 43.9569 357.341 43.978C357.278 44.1261 357.087 44.4964 356.77 45.0889C356.453 45.6602 356.104 46.3055 355.723 47.0249C355.342 47.7443 355.003 48.3791 354.707 48.9292V74.7007C354.749 76.0125 354.855 77.3879 355.024 78.8267C355.215 80.2443 355.522 81.4715 355.945 82.5083C356.389 83.5239 357.013 84.0317 357.817 84.0317H341.853C342.572 84.0317 343.144 83.6086 343.567 82.7622C343.99 81.8947 344.307 80.8368 344.519 79.5884C344.731 78.3188 344.858 77.0493 344.9 75.7798V46.5488C344.9 45.0042 344.858 43.6606 344.773 42.5181C344.709 41.3543 344.614 40.3704 344.487 39.5664C344.36 38.7412 344.212 38.0641 344.043 37.5352C343.895 36.985 343.736 36.5618 343.567 36.2656C343.398 35.9482 343.228 35.7155 343.059 35.5674C342.89 35.4193 342.731 35.3346 342.583 35.3135C342.456 35.2712 342.35 35.2606 342.266 35.2817C342.181 35.2817 342.128 35.2923 342.107 35.3135L344.9 33.7583L354.707 28.3311V46.1997C355.151 45.3957 355.532 44.6974 355.85 44.105C355.913 43.978 355.987 43.8405 356.072 43.6924C356.156 43.5443 356.23 43.4173 356.294 43.3115C356.357 43.2057 356.389 43.1423 356.389 43.1211C356.812 42.4017 357.447 41.439 358.293 40.2329C359.161 39.0269 360.24 37.7467 361.531 36.3926C364.028 33.79 366.672 31.8328 369.465 30.521Z" fill="#2A343E"/>
</svg>
