<svg width="590" height="462" viewBox="0 0 590 462" fill="none" xmlns="http://www.w3.org/2000/svg">
<path d="M41.0522 308.838C44.856 307.076 48.7215 306.21 52.6489 306.241L48.3813 318.672C48.3813 318.672 47.6546 318.533 46.2012 318.255C44.7786 317.977 42.9696 317.822 40.7739 317.791C38.5783 317.729 36.2899 318.054 33.9087 318.765C31.5584 319.445 29.3937 320.713 27.4146 322.569C25.4663 325.167 24.1211 327.13 23.3789 328.46C23.3789 328.46 23.3634 328.475 23.3325 328.506C23.2397 328.723 22.9614 329.264 22.4976 330.13C22.0337 330.965 21.5234 331.908 20.9668 332.959C20.4102 334.011 19.9154 334.939 19.4824 335.743V373.409C19.5443 375.326 19.6989 377.336 19.9463 379.439C20.2246 381.511 20.673 383.305 21.2915 384.82C21.9409 386.304 22.8532 387.046 24.0283 387.046H0.695801C1.74723 387.046 2.58219 386.428 3.20068 385.191C3.81917 383.923 4.28304 382.377 4.59229 380.552C4.90153 378.697 5.08708 376.841 5.14893 374.986V332.264C5.14893 330.006 5.08708 328.042 4.96338 326.373C4.87061 324.672 4.73145 323.234 4.5459 322.059C4.36035 320.853 4.14388 319.863 3.89648 319.09C3.68001 318.286 3.44808 317.667 3.20068 317.234C2.95329 316.771 2.70589 316.43 2.4585 316.214C2.2111 315.997 1.97917 315.874 1.7627 315.843C1.57715 315.781 1.42253 315.765 1.29883 315.796C1.17513 315.796 1.09782 315.812 1.06689 315.843L5.14893 313.57L19.4824 305.638V331.753C20.1318 330.578 20.6885 329.558 21.1523 328.692C21.2451 328.506 21.3534 328.305 21.4771 328.089C21.6007 327.872 21.709 327.687 21.8018 327.532C21.8945 327.378 21.9409 327.285 21.9409 327.254C22.5594 326.202 23.4871 324.795 24.7241 323.033C25.992 321.27 27.5692 319.399 29.4556 317.42C33.1047 313.616 36.9702 310.756 41.0522 308.838ZM109.705 267.183V303.272H128.584V305.127H109.705V372.991C109.736 376.146 110.107 379.222 110.818 382.222C113.694 383.861 116.802 384.681 120.142 384.681C120.698 384.681 121.27 384.65 121.858 384.588V386.443C121.27 386.505 120.698 386.536 120.142 386.536C117.204 386.536 114.405 385.933 111.746 384.727C107.138 382.655 103.35 379.269 100.381 374.568C97.443 369.868 95.7731 364.41 95.3711 358.194C95.3402 357.544 95.3247 356.864 95.3247 356.153C95.3247 355.998 95.3247 353.323 95.3247 348.128C95.3247 342.902 95.3247 336.995 95.3247 330.408C95.3556 323.821 95.3711 317.961 95.3711 312.828C95.3711 307.694 95.3711 305.127 95.3711 305.127H77.8369V303.272H95.3711V291.629C95.3711 289.34 95.3092 287.361 95.1855 285.691C95.0928 283.991 94.9536 282.553 94.7681 281.377C94.5825 280.171 94.366 279.182 94.1187 278.409C93.9022 277.605 93.6548 276.986 93.3765 276.553C93.1291 276.089 92.8817 275.749 92.6343 275.533C92.4178 275.316 92.2013 275.193 91.9849 275.162C91.7993 275.1 91.6292 275.084 91.4746 275.115C91.3509 275.146 91.2736 275.162 91.2427 275.162L95.3711 272.935L103.164 268.621L105.483 267.322L109.565 265.049C112.039 263.256 114.034 261.091 115.549 258.555C117.065 255.988 117.9 253.236 118.054 250.298C118.209 246.371 117.188 242.629 114.993 239.073C112.828 235.486 109.782 232.532 105.854 230.213C97.9378 225.945 89.1862 224.956 79.5996 227.244C71.0026 229.563 63.7817 234.249 57.937 241.299C52.618 248.103 49.742 255.679 49.3091 264.029C48.8761 272.347 50.8553 280.14 55.2466 287.408C55.3703 285.088 56.2362 283.156 57.8442 281.609C59.4523 280.032 61.4006 279.244 63.689 279.244C66.0083 279.244 67.9875 280.063 69.6265 281.702C71.2964 283.341 72.1313 285.336 72.1313 287.686C72.1313 290.005 71.2964 291.985 69.6265 293.624C67.9875 295.263 66.0083 296.082 63.689 296.082C61.4315 296.082 59.4832 295.309 57.8442 293.763L57.7515 293.855C51.1955 286.248 47.7319 277.357 47.3608 267.183C47.2371 257.009 50.2832 247.994 56.499 240.14C62.5911 232.749 70.1367 227.847 79.1357 225.435C89.2171 223.054 98.4172 224.121 106.736 228.636C111.003 231.11 114.297 234.279 116.616 238.145C118.966 242.011 120.064 246.093 119.91 250.391C119.693 253.793 118.673 256.963 116.848 259.9C115.055 262.838 112.673 265.266 109.705 267.183ZM72.8735 373.316C72.9354 375.264 73.1055 377.29 73.3838 379.393C73.6621 381.465 74.1105 383.258 74.729 384.773C75.3784 386.258 76.2752 387 77.4194 387H54.1333C55.1847 387 56.0197 386.366 56.6382 385.098C57.2567 383.83 57.7051 382.284 57.9834 380.459C58.2926 378.604 58.4937 376.749 58.5864 374.893V366.404V341.17V332.217C58.5864 329.929 58.5246 327.95 58.4009 326.28C58.3081 324.579 58.1689 323.141 57.9834 321.966C57.7979 320.76 57.5814 319.77 57.334 318.997C57.0866 318.193 56.8392 317.575 56.5918 317.142C56.3444 316.678 56.097 316.338 55.8496 316.121C55.6022 315.905 55.3857 315.781 55.2002 315.75C55.0146 315.688 54.8446 315.673 54.6899 315.704C54.5662 315.735 54.4889 315.75 54.458 315.75L58.5864 313.523L72.8735 305.591V341.17V366.404V373.316ZM204.473 378.604C205.122 379.934 206.529 380.305 208.694 379.717C208.57 379.996 208.323 380.459 207.952 381.109C207.581 381.758 207.179 382.485 206.746 383.289C206.313 384.124 205.895 384.897 205.493 385.608C205.122 386.289 204.859 386.768 204.705 387.046C204.705 387.046 204.364 387.046 203.684 387.046C203.035 387.077 202.215 387.093 201.226 387.093C200.236 387.124 199.246 387.124 198.257 387.093C197.298 387.093 196.494 387.031 195.845 386.907C193 386.505 191.021 385.005 189.907 382.408C189.32 380.459 189.088 378.449 189.211 376.377C189.211 376.13 189.211 375.898 189.211 375.682C184.14 379.949 178.434 383.119 172.095 385.191C168.26 386.521 164.209 387.417 159.941 387.881C155.705 388.376 151.607 388.113 147.649 387.093C143.289 385.825 139.918 383.506 137.537 380.135C135.186 376.764 133.81 372.883 133.408 368.492C133.13 364.286 133.068 360.034 133.223 355.735C133.285 353.818 133.315 351.932 133.315 350.076C133.315 342.994 133.315 335.913 133.315 328.831C133.315 328.553 133.269 327.656 133.176 326.141C133.083 324.594 132.898 322.94 132.62 321.177C132.341 319.415 131.939 317.977 131.414 316.863C130.888 315.719 130.177 315.333 129.28 315.704C133.609 313.322 137.923 310.926 142.222 308.514C144.046 307.493 145.871 306.488 147.695 305.499C147.695 310.694 147.695 315.905 147.695 321.131C147.695 326.543 147.695 331.954 147.695 337.366C147.695 342.747 147.695 348.143 147.695 353.555C147.695 358.936 147.695 364.332 147.695 369.744C147.695 370.177 147.695 370.61 147.695 371.043C147.664 372.125 147.68 373.208 147.742 374.29C147.989 376.919 148.824 379.207 150.247 381.155C151.7 383.073 153.726 384.387 156.323 385.098C158.674 385.655 161.039 385.763 163.42 385.423C165.833 385.083 168.167 384.526 170.425 383.753C177.383 381.588 183.614 378.109 189.119 373.316C189.119 372.264 189.119 369.203 189.119 364.131C189.119 359.029 189.119 353.524 189.119 347.618C189.119 341.711 189.119 336.779 189.119 332.82C189.119 332.078 189.072 330.717 188.979 328.738C188.918 326.728 188.748 324.641 188.469 322.476C188.222 320.311 187.82 318.549 187.263 317.188C186.707 315.827 185.964 315.333 185.037 315.704C189.644 313.168 194.252 310.617 198.86 308.05C200.406 307.215 201.937 306.364 203.452 305.499C203.452 306.519 203.452 309.534 203.452 314.544C203.483 319.554 203.499 325.337 203.499 331.893C203.499 338.418 203.499 344.711 203.499 350.772C203.499 355.782 203.499 359.972 203.499 363.343C203.499 366.714 203.499 368.523 203.499 368.77C203.499 369.389 203.483 370.053 203.452 370.765C203.39 372.125 203.39 373.501 203.452 374.893C203.545 376.285 203.885 377.522 204.473 378.604ZM281.196 379.764C281.042 380.042 280.794 380.506 280.454 381.155C280.114 381.774 279.727 382.47 279.294 383.243C278.831 384.109 278.398 384.897 277.996 385.608C277.625 386.32 277.362 386.814 277.207 387.093C277.207 387.093 276.697 387.108 275.676 387.139C274.656 387.201 273.403 387.201 271.919 387.139C270.465 387.077 269.043 386.923 267.651 386.675C266.26 386.397 265.162 385.949 264.358 385.33C262.935 384.062 262.085 382.47 261.807 380.552C261.559 378.604 261.497 376.656 261.621 374.708C261.652 373.965 261.667 373.27 261.667 372.62C259.781 376.455 257.075 379.578 253.55 381.99C250.024 384.371 246.159 385.887 241.953 386.536C238.118 387.155 234.284 387.046 230.449 386.211C226.646 385.376 223.228 383.707 220.198 381.202C217.074 378.48 214.972 375.171 213.889 371.275C212.838 367.347 213.132 363.451 214.771 359.585C216.626 355.813 219.347 352.844 222.935 350.679C226.522 348.514 230.248 346.798 234.114 345.53C238.381 344.015 242.649 342.515 246.917 341.031C251.833 339.33 256.735 337.614 261.621 335.882C261.621 331.893 261.621 327.919 261.621 323.96C261.621 323.156 261.637 322.337 261.667 321.502C261.822 319.337 261.745 317.219 261.436 315.147C260.879 312.611 259.688 310.879 257.864 309.952C256.039 308.993 253.952 308.452 251.602 308.328C247.798 307.988 243.917 308.359 239.958 309.441C236.031 310.493 232.753 312.487 230.125 315.425C229.815 314.776 229.506 314.142 229.197 313.523C228.053 311.235 226.924 308.947 225.811 306.658L225.718 306.426C227.573 306.303 229.444 306.163 231.331 306.009C236.464 305.514 241.628 305.328 246.824 305.452C252.019 305.576 256.967 306.658 261.667 308.699C265.935 310.617 269.352 313.431 271.919 317.142C274.486 320.822 275.846 325.012 276.001 329.712C276.063 333.64 276.078 339.129 276.047 346.18C276.047 353.23 276.032 359.462 276.001 364.874C276.001 368.059 276.001 370.177 276.001 371.229C276.001 371.414 276.001 371.584 276.001 371.739C275.97 373.069 276.032 374.445 276.187 375.867C276.341 377.259 276.79 378.372 277.532 379.207C278.274 380.042 279.495 380.228 281.196 379.764ZM260.972 369.837C261.188 369.311 261.405 368.785 261.621 368.26V337.83C260.353 338.263 259.085 338.711 257.817 339.175C255.034 340.165 252.251 341.154 249.468 342.144C248.293 342.546 247.102 342.933 245.896 343.304C243.422 343.984 241.041 344.865 238.752 345.948C236.093 347.401 233.944 349.55 232.305 352.396C230.697 355.241 229.722 358.132 229.382 361.07C228.857 366.945 230.31 372.28 233.743 377.073C235.444 379.393 237.515 381.294 239.958 382.779C241.412 383.583 242.912 383.938 244.458 383.846C246.004 383.722 247.504 383.32 248.958 382.64C251.772 381.372 254.168 379.625 256.147 377.398C258.127 375.14 259.735 372.62 260.972 369.837ZM305.178 387.046H281.892C282.944 387.046 283.778 386.428 284.397 385.191C285.015 383.923 285.464 382.377 285.742 380.552C286.051 378.697 286.252 376.841 286.345 374.986V292.046C286.345 289.758 286.283 287.779 286.16 286.109C286.067 284.408 285.928 282.97 285.742 281.795C285.557 280.589 285.34 279.599 285.093 278.826C284.845 278.022 284.598 277.404 284.351 276.971C284.103 276.507 283.856 276.167 283.608 275.95C283.392 275.734 283.175 275.61 282.959 275.579C282.773 275.517 282.603 275.502 282.449 275.533C282.325 275.564 282.248 275.579 282.217 275.579L300.679 265.42V373.409C300.71 375.326 300.864 377.336 301.143 379.439C301.421 381.511 301.869 383.305 302.488 384.82C303.137 386.304 304.034 387.046 305.178 387.046ZM384.917 305.313V373.177C384.948 376.331 385.319 379.408 386.03 382.408C388.906 384.047 392.014 384.866 395.354 384.866C395.911 384.866 396.483 384.835 397.07 384.773V386.675C396.483 386.706 395.911 386.722 395.354 386.722C392.416 386.722 389.618 386.119 386.958 384.913C382.35 382.841 378.562 379.454 375.593 374.754C372.655 370.053 370.986 364.611 370.583 358.426C370.553 357.745 370.537 357.05 370.537 356.338C370.537 356.184 370.537 353.509 370.537 348.313C370.537 343.087 370.537 337.181 370.537 330.594C370.568 324.007 370.583 318.147 370.583 313.013C370.583 307.88 370.583 305.313 370.583 305.313H353.049V303.458H370.583V291.814C370.583 289.526 370.522 287.547 370.398 285.877C370.305 284.176 370.166 282.738 369.98 281.563C369.795 280.357 369.578 279.367 369.331 278.594C369.115 277.79 368.867 277.172 368.589 276.739C368.341 276.275 368.094 275.935 367.847 275.718C367.63 275.502 367.414 275.378 367.197 275.347C367.012 275.285 366.842 275.27 366.687 275.301C366.563 275.332 366.486 275.347 366.455 275.347L370.583 273.121L384.917 265.142V303.458H403.796V305.313H384.917ZM408.992 366.497V341.263V332.264C408.992 330.006 408.93 328.042 408.806 326.373C408.713 324.672 408.574 323.234 408.389 322.059C408.203 320.853 407.987 319.863 407.739 319.09C407.523 318.286 407.275 317.667 406.997 317.234C406.75 316.771 406.502 316.43 406.255 316.214C406.038 315.997 405.822 315.874 405.605 315.843C405.42 315.781 405.25 315.765 405.095 315.796C404.972 315.796 404.91 315.812 404.91 315.843L408.992 313.57L423.325 305.638V341.263V366.497V373.409C423.356 375.326 423.511 377.336 423.789 379.439C424.067 381.511 424.516 383.305 425.134 384.82C425.784 386.304 426.681 387.046 427.825 387.046H404.539C405.59 387.046 406.425 386.428 407.043 385.191C407.662 383.923 408.11 382.377 408.389 380.552C408.698 378.697 408.899 376.841 408.992 374.986V366.497ZM414.094 296.175C411.775 296.175 409.78 295.355 408.11 293.716C406.471 292.046 405.652 290.052 405.652 287.732C405.652 285.413 406.471 283.434 408.11 281.795C409.78 280.125 411.775 279.29 414.094 279.29C416.414 279.29 418.393 280.125 420.032 281.795C421.702 283.434 422.537 285.413 422.537 287.732C422.537 290.052 421.702 292.046 420.032 293.716C418.393 295.355 416.414 296.175 414.094 296.175ZM505.059 317.93C511.769 324.734 515.697 332.882 516.841 342.376C517.676 350.88 516.16 358.812 512.295 366.172C508.429 373.501 502.755 379.222 495.271 383.335C487.262 387.448 478.912 388.871 470.222 387.603C461.532 386.366 453.91 382.671 447.354 376.517C447.354 376.919 447.354 378.217 447.354 380.413C447.354 383.722 447.354 387.819 447.354 392.706C447.354 397.623 447.354 402.107 447.354 406.158C447.354 410.209 447.354 412.59 447.354 413.301C447.384 416.27 447.709 419.192 448.328 422.068C448.482 422.687 448.683 423.367 448.931 424.109C449.209 424.852 449.58 425.516 450.044 426.104C450.508 426.692 451.126 426.985 451.899 426.985H428.567C429.216 426.985 429.742 426.769 430.144 426.336C430.577 425.903 430.917 425.408 431.165 424.852C431.969 423.182 432.479 421.357 432.695 419.378C432.943 417.43 433.066 415.528 433.066 413.672C433.066 413.332 433.066 411.755 433.066 408.941C433.066 402.818 433.066 394.051 433.066 382.64C433.066 371.229 433.066 360.498 433.066 350.447C433.066 340.397 433.066 334.305 433.066 332.171C433.066 331.8 433.066 331.429 433.066 331.058C433.097 328.862 433.02 326.62 432.834 324.332C432.68 322.012 432.231 319.832 431.489 317.791C431.366 317.482 431.18 317.111 430.933 316.678C430.716 316.245 430.438 315.905 430.098 315.657C429.757 315.379 429.371 315.333 428.938 315.518C433.855 312.797 438.772 310.075 443.689 307.354C444.926 306.674 446.147 305.993 447.354 305.313V317.466C450.786 314.157 454.667 311.513 458.997 309.534C466.913 306.04 475.015 305.066 483.303 306.612C491.622 308.127 498.874 311.9 505.059 317.93ZM475.974 386.258C477.891 386.258 479.762 386.119 481.587 385.84C485.422 383.861 488.653 381.155 491.282 377.723C493.91 374.29 495.951 370.564 497.405 366.543C500.374 358.441 501.348 349.937 500.327 341.031C499.307 332.125 496.106 324.239 490.725 317.374C488.591 314.714 485.963 312.426 482.839 310.508C479.747 308.56 476.438 307.663 472.913 307.818C462.862 308.746 454.342 312.859 447.354 320.157V373.826C451.095 377.785 455.456 380.846 460.435 383.011C465.413 385.175 470.593 386.258 475.974 386.258ZM575.891 354.808C577.963 358.519 578.86 362.369 578.582 366.358C578.303 370.347 576.881 374.043 574.314 377.444C571.562 380.877 568.191 383.382 564.202 384.959C560.243 386.536 556.099 387.247 551.77 387.093C545.121 386.691 538.89 384.866 533.076 381.619C531.468 380.753 529.906 379.81 528.391 378.79C528.391 378.79 528.376 378.79 528.345 378.79C528.005 378.542 527.649 378.31 527.278 378.094C525.422 376.826 523.567 375.542 521.711 374.244L517.073 370.765L523.428 364.41C524.448 368.492 526.396 372.11 529.272 375.264C532.179 378.388 535.643 380.552 539.663 381.758C541.766 382.315 543.884 382.346 546.018 381.851C550.255 381.047 553.95 379.207 557.104 376.331C559.888 373.61 561.496 370.517 561.929 367.054C562.393 363.59 561.573 360.219 559.47 356.941C557.089 353.571 554.105 351.066 550.518 349.427C546.961 347.757 543.25 346.381 539.385 345.298V345.345C537.189 344.664 535.009 343.938 532.844 343.165C530.71 342.361 528.654 341.386 526.675 340.242C525.994 339.995 525.33 339.624 524.68 339.129C524.031 338.634 523.428 338.139 522.871 337.645C522.778 337.552 522.67 337.459 522.546 337.366C521.124 336.16 519.887 334.769 518.835 333.191C516.733 329.913 515.913 326.342 516.377 322.476C517.026 318.208 518.851 314.668 521.851 311.854C524.881 309.008 528.453 307.138 532.566 306.241C536.184 305.56 539.833 305.282 543.513 305.406C547.595 305.375 551.554 306.024 555.388 307.354C558.635 308.591 561.666 310.215 564.48 312.225C566.614 313.74 568.531 315.472 570.232 317.42L565.918 321.224C564.372 317.605 562.114 314.513 559.146 311.946C556.177 309.194 552.682 307.679 548.662 307.4C548.507 307.369 548.353 307.354 548.198 307.354C546.281 307.168 544.379 307.261 542.493 307.632C539.369 308.405 536.942 310.122 535.21 312.781C533.478 315.874 532.736 319.214 532.983 322.801C533.293 326.481 534.808 329.573 537.529 332.078C539.663 334.057 542.013 335.588 544.58 336.67C547.178 337.722 549.837 338.65 552.559 339.454C554.105 339.917 555.636 340.412 557.151 340.938C560.986 342.237 564.542 343.984 567.82 346.18C571.098 348.375 573.788 351.251 575.891 354.808Z" fill="#2A343E"/>
<path d="M85.2124 174.52C85.8 178.447 85.5835 182.282 84.563 186.023C83.5425 189.765 81.8726 193.229 79.5532 196.414C76.368 200.713 72.5334 204.068 68.0493 206.48C63.5653 208.861 58.7565 210.407 53.623 211.119C48.5205 211.799 43.418 211.691 38.3154 210.794C31.3265 209.495 24.7087 207.176 18.4619 203.836C12.2461 200.465 6.32406 196.661 0.695801 192.425C2.58219 190.507 4.46859 188.575 6.35498 186.626C7.03532 185.915 7.71566 185.219 8.396 184.539C10.1278 189.642 12.9728 194.017 16.9312 197.667C20.5184 200.852 24.554 202.924 29.0381 203.882C33.5221 204.841 38.099 204.841 42.7686 203.882C47.6855 202.924 52.2469 201.223 56.4526 198.78C60.6893 196.337 64.0291 192.842 66.4722 188.296C68.6678 183.905 69.3172 179.498 68.4204 175.076C67.5236 170.623 65.4826 166.603 62.2974 163.016C58.772 159.243 54.7054 156.367 50.0977 154.388C45.4899 152.378 40.743 150.692 35.8569 149.332C35.5477 149.239 35.2384 149.131 34.9292 149.007V149.053C34.6818 148.991 34.4344 148.914 34.187 148.821C32.3315 148.234 30.4606 147.631 28.5742 147.012H28.667C23.9355 145.497 19.4206 143.471 15.1221 140.936C10.8545 138.369 7.34456 134.967 4.59229 130.73C2.42757 127.143 1.28337 123.34 1.15967 119.319C1.03597 115.268 1.85547 111.341 3.61816 107.537C5.62826 103.424 8.44238 100.007 12.0605 97.2856C15.7096 94.5643 19.7298 92.647 24.1211 91.5337C28.9453 90.3895 33.8159 90.1266 38.7329 90.7451C43.3407 91.1781 47.8247 92.1367 52.1851 93.6211C56.1125 95.0745 59.8853 97.0073 63.5034 99.4194C67.1216 101.801 70.2604 104.615 72.9199 107.862L66.5186 113.567C64.292 108.341 61.0604 103.826 56.8237 100.022C53.3293 96.6517 49.2318 94.4561 44.5312 93.4355C42.4593 93.0026 40.2946 92.7552 38.0371 92.6934C35.8105 92.6006 33.6768 92.8016 31.6357 93.2964C24.8942 95.1828 20.5339 99.4967 18.5547 106.238C17.194 110.815 17.0703 115.423 18.1836 120.062C19.5133 124.298 21.91 127.839 25.3735 130.684C28.466 133.282 31.8368 135.354 35.4858 136.9C39.1659 138.415 42.9386 139.683 46.8042 140.704C51.0099 141.91 55.1538 143.363 59.2358 145.064C63.3488 146.734 67.168 148.868 70.6934 151.465C74.4352 154.279 77.605 157.666 80.2026 161.624C82.8003 165.582 84.4702 169.881 85.2124 174.52ZM189.119 198.409C189.181 200.357 189.351 202.382 189.629 204.485C189.907 206.557 190.356 208.351 190.974 209.866C191.624 211.351 192.52 212.093 193.665 212.093H170.378C171.43 212.093 172.265 211.459 172.883 210.191C173.502 208.923 173.95 207.377 174.229 205.552C174.538 203.697 174.739 201.841 174.832 199.986V191.497V166.263V157.31C174.832 155.022 174.77 153.042 174.646 151.373C174.553 149.672 174.414 148.234 174.229 147.059C174.043 145.853 173.826 144.863 173.579 144.09C173.332 143.317 173.084 142.698 172.837 142.234C172.59 141.771 172.342 141.43 172.095 141.214C171.847 140.997 171.615 140.874 171.399 140.843C171.213 140.781 171.059 140.765 170.935 140.796C170.811 140.827 170.734 140.858 170.703 140.889L174.832 138.616L189.119 130.684V166.263V191.497V198.409ZM119.121 155.965L119.075 156.011L166.296 212.093H147.603L109.241 166.587C107.787 168.319 106.566 169.819 105.576 171.087V198.409C105.607 200.357 105.762 202.382 106.04 204.485C106.318 206.557 106.767 208.351 107.385 209.866C108.035 211.351 108.931 212.093 110.076 212.093H86.7896C87.841 212.093 88.6759 211.459 89.2944 210.191C89.9129 208.923 90.3613 207.377 90.6396 205.552C90.9489 203.697 91.1499 201.841 91.2427 199.986V117.046C91.2427 111.975 90.9953 108.295 90.5005 106.006C90.3459 105.171 90.1912 104.46 90.0366 103.873C89.7892 103.099 89.5418 102.481 89.2944 102.017C89.047 101.553 88.7996 101.213 88.5522 100.997C88.3049 100.78 88.0729 100.656 87.8564 100.625C87.6709 100.564 87.5008 100.548 87.3462 100.579C87.2225 100.579 87.1606 100.595 87.1606 100.625L105.298 90.5596C109.132 87.529 113.184 84.7458 117.451 82.21C129.45 75.252 141.139 72.0358 152.52 72.5615C158.89 72.9017 164.858 74.5098 170.425 77.3857C176.239 80.4163 180.8 84.4674 184.109 89.5391C187.542 94.9199 189.181 100.873 189.026 107.398C188.964 109.284 188.748 111.109 188.376 112.872C188.315 114.603 187.82 116.15 186.892 117.51C185.964 118.84 184.758 119.845 183.274 120.525C182.222 120.958 181.109 121.175 179.934 121.175C177.615 121.175 175.62 120.355 173.95 118.716C172.311 117.077 171.492 115.098 171.492 112.779C171.492 110.429 172.311 108.434 173.95 106.795C175.62 105.156 177.615 104.336 179.934 104.336C182.965 104.336 185.361 105.682 187.124 108.372C187.557 102.063 186.042 96.126 182.578 90.5596C179.455 85.859 175.234 82.0863 169.915 79.2412C164.626 76.3962 158.797 74.7881 152.427 74.417C141.418 73.8913 130.068 77.0301 118.379 83.8335C113.895 86.493 109.627 89.4618 105.576 92.7397V168.118C106.287 167.252 107.076 166.309 107.942 165.289C111.158 161.516 114.451 157.975 117.822 154.666C123.605 148.914 129.295 144.152 134.893 140.379C141.912 135.647 148.546 132.617 154.792 131.287C155.999 131.009 157.205 130.808 158.411 130.684C159.586 130.56 160.745 130.499 161.89 130.499V145.157C161.89 145.157 160.699 144.956 158.318 144.554C155.937 144.152 152.86 143.951 149.087 143.951C145.314 143.92 141.248 144.43 136.887 145.481C132.527 146.502 128.306 148.388 124.224 151.141C122.399 152.78 120.698 154.388 119.121 155.965ZM250.21 212.046C251.261 212.046 252.096 211.428 252.715 210.191C253.333 208.923 253.782 207.377 254.06 205.552C254.369 203.697 254.57 201.841 254.663 199.986V145.853C254.663 142.946 254.246 140.595 253.411 138.802C252.576 136.977 251.493 135.586 250.164 134.627C248.865 133.668 247.473 133.019 245.989 132.679C244.504 132.308 243.097 132.138 241.768 132.168C240.438 132.168 239.325 132.246 238.428 132.4C234.346 133.143 230.728 134.194 227.573 135.555C224.419 136.884 221.759 138.245 219.595 139.637C216.904 141.368 214.771 142.961 213.193 144.415V198.409C213.224 200.326 213.379 202.336 213.657 204.439C213.936 206.511 214.384 208.305 215.002 209.82C215.652 211.304 216.549 212.046 217.693 212.046H194.407C195.458 212.046 196.293 211.428 196.912 210.191C197.53 208.923 197.979 207.377 198.257 205.552C198.566 203.697 198.767 201.841 198.86 199.986V157.264C198.86 155.006 198.798 153.042 198.674 151.373C198.582 149.672 198.442 148.234 198.257 147.059C198.071 145.853 197.855 144.863 197.607 144.09C197.391 143.286 197.144 142.667 196.865 142.234C196.618 141.771 196.37 141.43 196.123 141.214C195.907 140.997 195.69 140.874 195.474 140.843C195.288 140.781 195.118 140.765 194.963 140.796C194.84 140.796 194.778 140.812 194.778 140.843L198.86 138.57L213.193 130.638V141.956C214.647 140.75 216.425 139.467 218.528 138.106C221.528 136.127 225.424 134.287 230.217 132.586C235.011 130.854 240.608 129.911 247.009 129.756C249.823 129.725 252.375 130.019 254.663 130.638C258.374 131.658 261.405 133.498 263.755 136.158C265.734 138.539 267.095 141.075 267.837 143.765C268.579 146.425 268.95 148.806 268.95 150.909C268.981 151.836 268.981 152.64 268.95 153.321V198.409C269.012 200.326 269.182 202.336 269.46 204.439C269.739 206.511 270.187 208.305 270.806 209.82C271.455 211.304 272.352 212.046 273.496 212.046H250.21ZM396.096 184.725C394.148 190.971 390.947 196.476 386.494 201.238C382.041 206.001 376.676 209.402 370.398 211.443C365.048 213.051 359.652 213.407 354.209 212.51C348.766 211.613 343.741 209.557 339.133 206.341C334.154 202.754 330.196 198.285 327.258 192.935C324.32 187.585 322.558 181.864 321.97 175.772C321.414 169.649 322.048 163.665 323.872 157.82C325.728 151.976 328.696 146.749 332.778 142.142C336.799 137.719 341.592 134.395 347.158 132.168C350.374 130.962 353.59 130.267 356.807 130.081C360.054 129.865 363.363 129.973 366.733 130.406V130.452C371.867 131.473 376.567 133.514 380.835 136.575C385.103 139.606 388.659 143.317 391.504 147.708C391.473 147.708 391.38 147.739 391.226 147.801C389.37 148.821 387.515 149.826 385.659 150.816C382.752 145.311 378.887 140.626 374.062 136.761C369.733 133.39 364.832 131.766 359.358 131.89C356.76 131.89 354.209 132.23 351.704 132.911C349.199 133.591 346.895 134.751 344.792 136.39C343.463 137.503 342.334 138.833 341.406 140.379C340.479 141.894 339.705 143.456 339.087 145.064C337.17 150.043 336.242 155.238 336.304 160.65C336.396 166.062 337.17 171.319 338.623 176.421C339.953 181.246 341.87 185.853 344.375 190.245C346.88 194.636 350.003 198.501 353.745 201.841C356.621 204.408 359.868 206.31 363.486 207.547C367.104 208.753 370.8 208.768 374.573 207.593C374.944 207.439 375.33 207.284 375.732 207.129C376.846 206.573 377.913 205.954 378.933 205.274C384.469 200.914 387.762 194.064 388.813 184.725H396.096ZM467.114 204.764C466.96 205.042 466.712 205.506 466.372 206.155C466.032 206.774 465.645 207.47 465.212 208.243C464.749 209.109 464.316 209.897 463.914 210.608C463.542 211.32 463.28 211.814 463.125 212.093C463.125 212.093 462.615 212.108 461.594 212.139C460.574 212.201 459.321 212.201 457.837 212.139C456.383 212.077 454.961 211.923 453.569 211.675C452.178 211.397 451.08 210.949 450.276 210.33C448.853 209.062 448.003 207.47 447.725 205.552C447.477 203.604 447.415 201.656 447.539 199.708C447.57 198.965 447.585 198.27 447.585 197.62C445.699 201.455 442.993 204.578 439.468 206.99C435.942 209.371 432.077 210.887 427.871 211.536C424.036 212.155 420.202 212.046 416.367 211.211C412.563 210.376 409.146 208.707 406.116 206.202C402.992 203.48 400.889 200.171 399.807 196.275C398.756 192.347 399.049 188.451 400.688 184.585C402.544 180.813 405.265 177.844 408.853 175.679C412.44 173.514 416.166 171.798 420.032 170.53C424.299 169.015 428.567 167.515 432.834 166.031C437.751 164.33 442.653 162.614 447.539 160.882C447.539 156.893 447.539 152.919 447.539 148.96C447.539 148.156 447.555 147.337 447.585 146.502C447.74 144.337 447.663 142.219 447.354 140.147C446.797 137.611 445.606 135.879 443.782 134.952C441.957 133.993 439.87 133.452 437.52 133.328C433.716 132.988 429.835 133.359 425.876 134.441C421.949 135.493 418.671 137.487 416.042 140.425C415.733 139.776 415.424 139.142 415.115 138.523C413.971 136.235 412.842 133.947 411.729 131.658L411.636 131.426C413.491 131.303 415.362 131.163 417.249 131.009C422.382 130.514 427.546 130.328 432.742 130.452C437.937 130.576 442.885 131.658 447.585 133.699C451.853 135.617 455.27 138.431 457.837 142.142C460.404 145.822 461.764 150.012 461.919 154.712C461.981 158.64 461.996 164.129 461.965 171.18C461.965 178.23 461.95 184.462 461.919 189.874C461.919 193.059 461.919 195.177 461.919 196.229C461.919 196.414 461.919 196.584 461.919 196.739C461.888 198.069 461.95 199.445 462.104 200.867C462.259 202.259 462.708 203.372 463.45 204.207C464.192 205.042 465.413 205.228 467.114 204.764ZM446.89 194.837C447.106 194.311 447.323 193.785 447.539 193.26V162.83C446.271 163.263 445.003 163.711 443.735 164.175C440.952 165.165 438.169 166.154 435.386 167.144C434.211 167.546 433.02 167.933 431.814 168.304C429.34 168.984 426.959 169.865 424.67 170.948C422.011 172.401 419.862 174.55 418.223 177.396C416.615 180.241 415.64 183.132 415.3 186.07C414.775 191.945 416.228 197.28 419.661 202.073C421.361 204.393 423.433 206.294 425.876 207.779C427.33 208.583 428.83 208.938 430.376 208.846C431.922 208.722 433.422 208.32 434.875 207.64C437.69 206.372 440.086 204.625 442.065 202.398C444.045 200.14 445.653 197.62 446.89 194.837ZM508.167 133.838C511.97 132.076 515.836 131.21 519.763 131.241L515.496 143.672C515.496 143.672 514.769 143.533 513.315 143.255C511.893 142.977 510.084 142.822 507.888 142.791C505.693 142.729 503.404 143.054 501.023 143.765C498.673 144.445 496.508 145.713 494.529 147.569C492.581 150.167 491.235 152.13 490.493 153.46C490.493 153.46 490.478 153.475 490.447 153.506C490.354 153.723 490.076 154.264 489.612 155.13C489.148 155.965 488.638 156.908 488.081 157.959C487.524 159.011 487.03 159.939 486.597 160.743V198.409C486.659 200.326 486.813 202.336 487.061 204.439C487.339 206.511 487.787 208.305 488.406 209.82C489.055 211.304 489.967 212.046 491.143 212.046H467.81C468.861 212.046 469.696 211.428 470.315 210.191C470.933 208.923 471.397 207.377 471.707 205.552C472.016 203.697 472.201 201.841 472.263 199.986V157.264C472.263 155.006 472.201 153.042 472.078 151.373C471.985 149.672 471.846 148.234 471.66 147.059C471.475 145.853 471.258 144.863 471.011 144.09C470.794 143.286 470.562 142.667 470.315 142.234C470.068 141.771 469.82 141.43 469.573 141.214C469.325 140.997 469.093 140.874 468.877 140.843C468.691 140.781 468.537 140.765 468.413 140.796C468.289 140.796 468.212 140.812 468.181 140.843L472.263 138.57L486.597 130.638V156.753C487.246 155.578 487.803 154.558 488.267 153.692C488.359 153.506 488.468 153.305 488.591 153.089C488.715 152.872 488.823 152.687 488.916 152.532C489.009 152.378 489.055 152.285 489.055 152.254C489.674 151.202 490.601 149.795 491.838 148.033C493.106 146.27 494.683 144.399 496.57 142.42C500.219 138.616 504.084 135.756 508.167 133.838ZM581.04 184.261C581.04 184.261 581.334 184.261 581.921 184.261C582.509 184.261 583.22 184.261 584.055 184.261C584.921 184.261 585.741 184.261 586.514 184.261C587.287 184.261 587.874 184.261 588.276 184.261C586.792 189.054 584.55 193.445 581.55 197.435C578.551 201.424 574.902 204.733 570.603 207.361C562.996 211.753 555.048 213.299 546.76 212C538.503 210.701 531.329 206.897 525.237 200.589C519.392 194.188 515.789 186.766 514.429 178.323C513.068 169.881 514.058 161.686 517.397 153.738C517.397 153.707 517.397 153.692 517.397 153.692C520.737 145.713 526.041 139.389 533.308 134.72C536.926 132.493 540.838 130.931 545.044 130.035C547.363 129.602 549.667 129.401 551.956 129.432C554.275 129.463 556.594 129.633 558.914 129.942V129.988C566.459 131.565 572.876 135.06 578.164 140.472C583.452 145.883 587.101 152.238 589.111 159.537C588.307 159.537 585.168 159.537 579.695 159.537C574.221 159.537 567.913 159.537 560.769 159.537C553.656 159.537 547.085 159.537 541.055 159.537C535.055 159.537 530.881 159.537 528.53 159.537C528.499 165.629 529.396 171.582 531.221 177.396C531.221 177.396 531.236 177.457 531.267 177.581C531.298 177.705 531.344 177.859 531.406 178.045C531.468 178.2 531.53 178.37 531.592 178.555C531.654 178.741 531.7 178.895 531.731 179.019C531.762 179.112 531.777 179.158 531.777 179.158C533.231 183.457 535.148 187.554 537.529 191.451C539.941 195.347 542.879 198.78 546.343 201.749C549.126 204.161 552.311 205.97 555.898 207.176C559.486 208.382 563.104 208.366 566.753 207.129C567.124 206.975 567.511 206.82 567.913 206.666C569.026 206.109 570.093 205.49 571.113 204.81C576.649 200.45 579.958 193.6 581.04 184.261ZM528.623 157.681H580.066C578.272 151.28 575.195 145.574 570.835 140.564C568.949 138.4 566.799 136.529 564.387 134.952C561.975 133.375 559.347 132.308 556.501 131.751C550.842 130.761 545.415 131.457 540.22 133.838C537.406 135.323 535.164 137.379 533.494 140.008C531.855 142.605 530.649 145.466 529.875 148.589C529.133 151.682 528.716 154.712 528.623 157.681Z" fill="#2A343E"/>
</svg>
