<svg width="366" height="645" viewBox="0 0 366 645" fill="none" xmlns="http://www.w3.org/2000/svg">
<path d="M106.643 90.1421C107.323 90.1421 108.39 90.1421 109.844 90.1421C111.297 90.1421 112.812 90.1421 114.39 90.1421C115.998 90.1421 117.358 90.1421 118.472 90.1421C119.585 90.1421 120.188 90.1421 120.281 90.1421C119.569 90.1421 118.889 90.3431 118.24 90.7451C117.59 91.1471 116.987 91.5492 116.431 91.9512C114.823 93.25 113.307 94.6571 111.885 96.1724C108.947 99.3267 106.179 102.62 103.582 106.053C101.139 109.3 97.0874 114.882 91.4282 122.798C85.8 130.684 80.45 138.183 75.3784 145.296C72.3478 149.594 70.0285 152.857 68.4204 155.083C68.4204 155.64 68.4204 157.944 68.4204 161.995C68.4204 166.046 68.4204 170.654 68.4204 175.818C68.4204 180.983 68.4204 185.621 68.4204 189.734C68.4204 193.847 68.4204 196.445 68.4204 197.527C68.4204 198.981 68.4977 200.419 68.6523 201.841C68.776 204.037 69.1471 206.186 69.7656 208.289C69.8893 208.815 70.0903 209.356 70.3687 209.913C70.647 210.469 70.9871 210.964 71.3892 211.397C71.8221 211.799 72.3478 212 72.9663 212H49.6338C50.6543 212 51.4429 211.521 51.9995 210.562C52.5562 209.603 52.9582 208.536 53.2056 207.361C53.453 206.155 53.623 205.135 53.7158 204.3C53.7158 204.207 53.7313 204.114 53.7622 204.021C54.0096 202.382 54.1333 200.728 54.1333 199.058C54.1333 196.677 54.1333 192.811 54.1333 187.461C54.1333 182.081 54.1333 176.792 54.1333 171.597C54.1333 166.371 54.1333 162.552 54.1333 160.14C53.453 159.181 50.6852 155.269 45.8301 148.404C40.9749 141.539 35.6405 133.993 29.8267 125.767C24.0129 117.51 19.3123 110.831 15.7251 105.728C13.715 102.914 12.5244 101.244 12.1533 100.718C10.8236 98.8009 9.37012 96.9919 7.79297 95.291C7.63835 95.1364 7.48372 94.9508 7.3291 94.7344C6.77246 94.1159 6.13851 93.451 5.42725 92.7397C4.71598 92.0285 3.95833 91.4255 3.1543 90.9307C2.35026 90.4049 1.53076 90.1421 0.695801 90.1421C1.37614 90.1421 3.43262 90.1421 6.86523 90.1421C10.3288 90.1421 14.0552 90.1421 18.0444 90.1421C22.0646 90.1421 25.4199 90.1421 28.1104 90.1421C27.2135 90.1421 26.7651 90.5905 26.7651 91.4873C26.7961 92.3532 27.0435 93.4046 27.5073 94.6416C27.9712 95.8477 28.466 96.9919 28.9917 98.0742C29.5483 99.1257 29.9658 99.8833 30.2441 100.347C30.2751 100.409 30.306 100.455 30.3369 100.486C31.2337 102.094 33.5685 105.635 37.3413 111.109C41.1141 116.583 45.2889 122.597 49.8657 129.153C54.4425 135.678 58.4627 141.399 61.9263 146.316C65.4207 151.202 67.168 153.646 67.168 153.646C68.374 151.976 71.3273 147.847 76.0278 141.26C80.7593 134.642 85.5371 127.963 90.3613 121.221C93.2064 117.263 95.5566 113.985 97.4121 111.387C99.113 109.006 100.736 106.548 102.283 104.012C102.468 103.733 102.839 103.099 103.396 102.11C103.984 101.089 104.618 99.9142 105.298 98.5845C106.009 97.2547 106.597 95.9559 107.061 94.688C107.555 93.3892 107.803 92.3068 107.803 91.4409C107.834 90.575 107.447 90.1421 106.643 90.1421ZM175.342 158.331C178.805 168.969 178.11 179.344 173.254 189.456C168.152 199.414 160.312 206.248 149.736 209.959C139.098 213.423 128.723 212.727 118.611 207.872C108.653 202.8 101.819 194.976 98.1079 184.4C94.6444 173.731 95.3402 163.356 100.195 153.274C105.267 143.286 113.091 136.436 123.667 132.725C134.336 129.262 144.711 129.957 154.792 134.812C164.781 139.915 171.631 147.754 175.342 158.331ZM152.612 206.851C157.715 203.418 160.931 197.744 162.261 189.827C163.621 181.88 162.756 173.112 159.663 163.526C156.385 154.249 151.87 146.873 146.118 141.399C140.397 135.895 134.506 133.204 128.445 133.328C127.053 133.637 125.662 134.024 124.27 134.488C123.002 134.921 121.781 135.416 120.605 135.972C115.658 139.498 112.55 145.203 111.282 153.089C110.014 160.944 110.911 169.572 113.972 178.973C117.312 188.497 121.935 196.012 127.842 201.517C133.779 207.021 139.825 209.557 145.979 209.124C147.061 208.877 148.128 208.567 149.18 208.196C150.355 207.794 151.499 207.346 152.612 206.851ZM253.643 203.604C254.292 204.934 255.699 205.305 257.864 204.717C257.74 204.996 257.493 205.459 257.122 206.109C256.75 206.758 256.348 207.485 255.916 208.289C255.483 209.124 255.065 209.897 254.663 210.608C254.292 211.289 254.029 211.768 253.875 212.046C253.875 212.046 253.534 212.046 252.854 212.046C252.205 212.077 251.385 212.093 250.396 212.093C249.406 212.124 248.416 212.124 247.427 212.093C246.468 212.093 245.664 212.031 245.015 211.907C242.17 211.505 240.19 210.005 239.077 207.408C238.49 205.459 238.258 203.449 238.381 201.377C238.381 201.13 238.381 200.898 238.381 200.682C233.31 204.949 227.604 208.119 221.265 210.191C217.43 211.521 213.379 212.417 209.111 212.881C204.875 213.376 200.777 213.113 196.819 212.093C192.458 210.825 189.088 208.506 186.707 205.135C184.356 201.764 182.98 197.883 182.578 193.492C182.3 189.286 182.238 185.034 182.393 180.735C182.454 178.818 182.485 176.932 182.485 175.076C182.485 167.994 182.485 160.913 182.485 153.831C182.485 153.553 182.439 152.656 182.346 151.141C182.253 149.594 182.068 147.94 181.79 146.177C181.511 144.415 181.109 142.977 180.583 141.863C180.058 140.719 179.347 140.333 178.45 140.704C182.779 138.322 187.093 135.926 191.392 133.514C193.216 132.493 195.041 131.488 196.865 130.499C196.865 135.694 196.865 140.905 196.865 146.131C196.865 151.543 196.865 156.954 196.865 162.366C196.865 167.747 196.865 173.143 196.865 178.555C196.865 183.936 196.865 189.332 196.865 194.744C196.865 195.177 196.865 195.61 196.865 196.043C196.834 197.125 196.85 198.208 196.912 199.29C197.159 201.919 197.994 204.207 199.417 206.155C200.87 208.073 202.896 209.387 205.493 210.098C207.843 210.655 210.209 210.763 212.59 210.423C215.002 210.083 217.337 209.526 219.595 208.753C226.553 206.588 232.784 203.109 238.289 198.316C238.289 197.264 238.289 194.203 238.289 189.131C238.289 184.029 238.289 178.524 238.289 172.618C238.289 166.711 238.289 161.779 238.289 157.82C238.289 157.078 238.242 155.717 238.149 153.738C238.088 151.728 237.917 149.641 237.639 147.476C237.392 145.311 236.99 143.549 236.433 142.188C235.876 140.827 235.134 140.333 234.207 140.704C238.814 138.168 243.422 135.617 248.03 133.05C249.576 132.215 251.107 131.364 252.622 130.499C252.622 131.519 252.622 134.534 252.622 139.544C252.653 144.554 252.668 150.337 252.668 156.893C252.668 163.418 252.668 169.711 252.668 175.772C252.668 180.782 252.668 184.972 252.668 188.343C252.668 191.714 252.668 193.523 252.668 193.77C252.668 194.389 252.653 195.053 252.622 195.765C252.56 197.125 252.56 198.501 252.622 199.893C252.715 201.285 253.055 202.522 253.643 203.604Z" fill="#2A343E"/>
<path d="M110.632 358.046C111.158 358.046 111.606 357.892 111.978 357.583C112.349 357.273 112.673 356.902 112.952 356.469C113.879 354.83 114.467 352.99 114.714 350.949C114.962 348.908 115.085 346.991 115.085 345.197C115.085 344.641 115.085 342.043 115.085 337.404C115.085 332.735 115.085 327.338 115.085 321.215C115.085 315.092 115.085 309.433 115.085 304.238C115.085 299.042 115.085 295.409 115.085 293.337C115.085 291.914 115.008 290.507 114.854 289.116C114.73 287.724 114.405 286.348 113.879 284.987C113.075 283.101 111.885 281.601 110.308 280.488C108.73 279.375 106.937 278.663 104.927 278.354C102.669 278.045 100.427 278.091 98.2007 278.493C96.005 278.895 93.8403 279.452 91.7065 280.163C85.2433 282.266 79.3986 285.513 74.1724 289.904C74.729 291.883 75.0537 293.894 75.1465 295.935C75.2702 297.976 75.3166 300.017 75.2856 302.058C75.2856 302.645 75.2856 303.248 75.2856 303.867C75.2856 306.959 75.2856 311.211 75.2856 316.623C75.2856 322.684 75.2856 328.421 75.2856 333.833C75.2856 339.244 75.2856 342.646 75.2856 344.038C75.3166 346.295 75.4867 348.553 75.7959 350.81C75.8268 350.872 75.8423 350.934 75.8423 350.996C75.9351 351.769 76.1051 352.712 76.3525 353.825C76.6309 354.908 77.0329 355.882 77.5586 356.748C78.0843 357.613 78.842 358.046 79.8315 358.046H56.499C57.0247 358.046 57.4731 357.892 57.8442 357.583C58.2463 357.273 58.571 356.902 58.8184 356.469C59.7461 354.83 60.3337 352.99 60.5811 350.949C60.8285 348.908 60.9521 346.991 60.9521 345.197C60.9521 344.61 60.9521 341.997 60.9521 337.358C60.9521 332.688 60.9521 327.292 60.9521 321.169C60.9521 315.015 60.9521 309.34 60.9521 304.145C60.9521 298.95 60.9521 295.316 60.9521 293.244C60.9521 291.791 60.8748 290.337 60.7202 288.884C60.5965 287.399 60.2254 285.977 59.6069 284.616C58.741 282.761 57.5041 281.307 55.896 280.256C54.2879 279.204 52.4943 278.555 50.5151 278.308C48.1649 278.029 45.8301 278.122 43.5107 278.586C41.2223 279.019 38.9803 279.637 36.7847 280.441C30.3524 282.637 24.585 285.961 19.4824 290.415C19.4824 291.157 19.4824 294.512 19.4824 300.48C19.5133 306.418 19.5443 313.098 19.5752 320.52C19.637 327.91 19.6834 334.466 19.7144 340.188C19.7762 345.878 19.8381 349.109 19.8999 349.882C19.8999 349.975 19.9154 350.083 19.9463 350.207C20.0391 351.073 20.2091 352.124 20.4565 353.361C20.7039 354.567 21.0905 355.65 21.6162 356.608C22.1729 357.567 22.9769 358.046 24.0283 358.046H0.695801C1.37614 358.046 1.93278 357.814 2.36572 357.351C2.82959 356.856 3.18522 356.299 3.43262 355.681C3.71094 355.031 3.92741 354.428 4.08203 353.872C4.76237 351.274 5.13346 348.645 5.19531 345.986C5.19531 345.429 5.19531 342.692 5.19531 337.775C5.19531 332.827 5.17985 327.076 5.14893 320.52C5.118 313.964 5.04069 307.98 4.91699 302.568C4.82422 297.156 4.6696 293.723 4.45312 292.27C4.39128 291.868 4.22119 291.172 3.94287 290.183C3.69548 289.193 3.32438 288.327 2.82959 287.585C2.36572 286.812 1.77816 286.564 1.06689 286.843C5.98389 284.152 10.9009 281.431 15.8179 278.679C17.0239 277.998 18.2454 277.318 19.4824 276.638V287.956C22.6676 285.358 26.1003 283.147 29.7803 281.323C33.182 279.653 37.0166 278.277 41.2842 277.194C45.5518 276.081 49.8348 275.571 54.1333 275.664C58.4318 275.756 62.2974 276.761 65.73 278.679C69.1935 280.596 71.8066 283.704 73.5693 288.002C78.7337 283.766 84.4857 280.596 90.8252 278.493C94.5052 277.225 98.3708 276.359 102.422 275.896C106.473 275.432 110.416 275.617 114.25 276.452C121.147 278.215 125.754 282.467 128.074 289.208C128.63 290.971 128.986 292.765 129.141 294.589C129.295 296.383 129.373 298.208 129.373 300.063C129.373 301.238 129.373 303.434 129.373 306.65C129.373 311.103 129.373 316.221 129.373 322.004C129.373 327.756 129.373 332.889 129.373 337.404C129.373 341.888 129.388 344.44 129.419 345.058C129.481 347.903 129.821 350.717 130.439 353.5C130.594 354.088 130.795 354.737 131.042 355.449C131.321 356.129 131.692 356.732 132.156 357.258C132.62 357.784 133.207 358.046 133.918 358.046H110.632ZM139.67 337.497V312.263V303.264C139.67 301.006 139.609 299.042 139.485 297.373C139.392 295.672 139.253 294.234 139.067 293.059C138.882 291.853 138.665 290.863 138.418 290.09C138.201 289.286 137.954 288.667 137.676 288.234C137.428 287.771 137.181 287.43 136.934 287.214C136.717 286.997 136.501 286.874 136.284 286.843C136.099 286.781 135.929 286.765 135.774 286.796C135.65 286.796 135.588 286.812 135.588 286.843L139.67 284.57L154.004 276.638V312.263V337.497V344.409C154.035 346.326 154.189 348.336 154.468 350.439C154.746 352.511 155.194 354.305 155.813 355.82C156.462 357.304 157.359 358.046 158.503 358.046H135.217C136.269 358.046 137.104 357.428 137.722 356.191C138.341 354.923 138.789 353.377 139.067 351.552C139.377 349.697 139.578 347.841 139.67 345.986V337.497ZM144.773 267.175C142.454 267.175 140.459 266.355 138.789 264.716C137.15 263.046 136.331 261.052 136.331 258.732C136.331 256.413 137.15 254.434 138.789 252.795C140.459 251.125 142.454 250.29 144.773 250.29C147.092 250.29 149.071 251.125 150.71 252.795C152.38 254.434 153.215 256.413 153.215 258.732C153.215 261.052 152.38 263.046 150.71 264.716C149.071 266.355 147.092 267.175 144.773 267.175ZM254.385 380.126C257.106 385.291 258.312 390.687 258.003 396.315C257.694 401.975 256.225 407.355 253.596 412.458C250.38 418.396 246.066 422.926 240.654 426.049C235.243 429.173 229.32 431.121 222.888 431.894C216.487 432.667 210.178 432.513 203.962 431.43C198.334 430.348 192.799 428.941 187.356 427.209C182.068 425.508 176.687 424.117 171.213 423.034C165.523 421.952 159.802 421.364 154.05 421.271L156.091 413.85C161.936 415.736 167.781 417.823 173.625 420.112C180.8 423.019 188.067 425.539 195.427 427.673C202.818 429.807 210.41 430.781 218.203 430.595C223.46 430.41 228.656 429.296 233.789 427.255C238.923 425.245 243.36 422.338 247.102 418.535C250.875 414.731 253.287 410.046 254.338 404.479C255.081 400.243 254.771 396.022 253.411 391.816C252.081 387.641 249.762 384.147 246.453 381.333C242.804 378.549 238.722 377.096 234.207 376.972C229.692 376.848 225.347 377.529 221.172 379.013C216.564 380.714 211.864 382.894 207.07 385.554C202.988 387.749 198.86 389.729 194.685 391.491C190.51 393.254 186.274 394.29 181.975 394.599C177.708 394.908 173.409 393.996 169.08 391.862C165.214 389.821 162.4 387.007 160.637 383.42C158.905 379.833 158.519 375.89 159.478 371.591C160.653 367.076 162.817 363.164 165.972 359.855C169.126 356.577 172.59 353.671 176.362 351.135C169.002 346.032 163.807 339.26 160.776 330.817C158.241 323.241 157.869 315.649 159.663 308.042C161.488 300.403 165.245 293.754 170.935 288.095C176.656 282.653 183.32 279.143 190.928 277.565C198.566 275.988 206.096 276.545 213.518 279.235C217.847 278.833 222.27 277.952 226.785 276.591C231.331 275.231 235.026 273.112 237.871 270.236L238.057 270.422L243.716 275.432C243.716 275.432 242.773 275.741 240.886 276.359C239 276.947 236.634 277.612 233.789 278.354C230.975 279.096 228.053 279.715 225.022 280.209C222.022 280.673 219.332 280.828 216.951 280.673C225.269 284.755 231.532 290.925 235.737 299.182C239.727 307.531 240.886 316.128 239.216 324.973C237.577 333.786 233.387 341.347 226.646 347.656C219.78 353.655 211.925 357.072 203.081 357.907C194.268 358.711 185.933 356.809 178.079 352.202C174.028 354.83 170.363 357.892 167.085 361.386C165.601 363.211 165.013 365.252 165.322 367.509C165.662 369.798 166.621 371.777 168.198 373.447C170.27 375.55 172.636 376.848 175.295 377.343C177.955 377.869 180.676 377.884 183.459 377.39C186.274 376.926 188.933 376.215 191.438 375.256C194.871 373.988 198.257 372.596 201.597 371.081C205.926 369.071 210.348 367.324 214.863 365.839C218.667 364.633 222.502 363.984 226.367 363.891C230.233 363.798 234.052 364.448 237.825 365.839C245.03 368.653 250.55 373.416 254.385 380.126ZM183.135 282.019C180.413 283.936 178.311 286.41 176.826 289.44C175.373 292.44 174.399 295.548 173.904 298.764C172.76 306.124 173.177 313.515 175.156 320.937C177.166 328.328 180.336 335.023 184.666 341.022C186.428 343.465 188.423 345.738 190.649 347.841C192.907 349.913 195.381 351.63 198.071 352.99C200.329 354.165 202.725 354.892 205.261 355.17C206.993 355.325 208.678 355.17 210.317 354.707C211.987 354.243 213.595 353.655 215.142 352.944C217.739 351.243 219.78 349.047 221.265 346.357C222.78 343.636 223.847 340.791 224.465 337.822C225.919 330.864 225.841 323.813 224.233 316.669C222.656 309.526 220.012 302.954 216.301 296.955C213.178 291.729 209.158 287.338 204.241 283.781C202.509 282.513 200.422 281.369 197.979 280.349C195.535 279.328 193.216 279.019 191.021 279.421C188.299 280.008 185.671 280.874 183.135 282.019ZM299.194 358.046C300.246 358.046 301.081 357.428 301.699 356.191C302.318 354.923 302.766 353.377 303.044 351.552C303.354 349.697 303.555 347.841 303.647 345.986V291.853C303.647 288.946 303.23 286.595 302.395 284.802C301.56 282.977 300.478 281.586 299.148 280.627C297.849 279.668 296.458 279.019 294.973 278.679C293.52 278.308 292.113 278.138 290.752 278.168C289.422 278.168 288.309 278.246 287.412 278.4C283.33 279.143 279.712 280.194 276.558 281.555C273.403 282.884 270.744 284.245 268.579 285.637C265.889 287.368 263.755 288.961 262.178 290.415V344.409C262.24 346.326 262.394 348.336 262.642 350.439C262.92 352.511 263.368 354.305 263.987 355.82C264.636 357.304 265.549 358.046 266.724 358.046H260.508H249.607H243.391C244.443 358.046 245.278 357.428 245.896 356.191C246.514 354.923 246.978 353.377 247.288 351.552C247.597 349.697 247.782 347.841 247.844 345.986V263.046C247.844 260.758 247.782 258.779 247.659 257.109C247.566 255.408 247.427 253.97 247.241 252.795C247.056 251.589 246.839 250.599 246.592 249.826C246.375 249.022 246.143 248.404 245.896 247.971C245.649 247.507 245.401 247.167 245.154 246.95C244.906 246.734 244.674 246.61 244.458 246.579C244.272 246.517 244.118 246.502 243.994 246.533C243.87 246.564 243.793 246.579 243.762 246.579L247.844 244.353L262.178 236.42V287.956C263.631 286.75 265.425 285.467 267.559 284.106C270.527 282.127 274.408 280.287 279.202 278.586C283.995 276.854 289.592 275.911 295.994 275.756C298.808 275.725 301.359 276.019 303.647 276.638C307.389 277.658 310.42 279.498 312.739 282.158C314.749 284.539 316.11 287.075 316.821 289.765C317.563 292.425 317.95 294.806 317.981 296.909C318.012 297.836 318.012 298.64 317.981 299.321V344.409C318.012 346.326 318.167 348.336 318.445 350.439C318.723 352.511 319.172 354.305 319.79 355.82C320.439 357.304 321.336 358.046 322.48 358.046H299.194ZM346.509 276.313V344.177C346.54 347.331 346.911 350.408 347.622 353.408C350.498 355.047 353.606 355.866 356.946 355.866C357.502 355.866 358.075 355.835 358.662 355.773V357.675C358.075 357.706 357.502 357.722 356.946 357.722C354.008 357.722 351.209 357.119 348.55 355.913C343.942 353.841 340.154 350.454 337.185 345.754C334.247 341.053 332.577 335.611 332.175 329.426C332.144 328.745 332.129 328.05 332.129 327.338C332.129 327.184 332.129 324.509 332.129 319.313C332.129 314.087 332.129 308.181 332.129 301.594C332.16 295.007 332.175 289.147 332.175 284.013C332.175 278.88 332.175 276.313 332.175 276.313H314.641V274.458H332.175V262.814C332.175 260.526 332.113 258.547 331.99 256.877C331.897 255.176 331.758 253.738 331.572 252.563C331.387 251.357 331.17 250.367 330.923 249.594C330.706 248.79 330.459 248.172 330.181 247.739C329.933 247.275 329.686 246.935 329.438 246.718C329.222 246.502 329.006 246.378 328.789 246.347C328.604 246.285 328.433 246.27 328.279 246.301C328.155 246.332 328.078 246.347 328.047 246.347L332.175 244.121L346.509 236.142V274.458H365.388V276.313H346.509Z" fill="#2A343E"/>
<path d="M19.668 556.362C19.6989 558.28 19.8535 560.29 20.1318 562.393C20.4102 564.465 20.8586 566.258 21.4771 567.773C22.1265 569.258 23.0233 570 24.1675 570H0.881348C1.93278 570 2.76774 569.382 3.38623 568.145C4.00472 566.877 4.45312 565.315 4.73145 563.459C5.04069 561.604 5.2417 559.749 5.33447 557.893V475C5.33447 472.712 5.27262 470.732 5.14893 469.062C5.05615 467.362 4.91699 465.924 4.73145 464.749C4.5459 463.542 4.32943 462.553 4.08203 461.78C3.86556 460.976 3.61816 460.357 3.33984 459.924C3.09245 459.46 2.84505 459.12 2.59766 458.904C2.38118 458.687 2.16471 458.564 1.94824 458.533C1.7627 458.471 1.59261 458.455 1.43799 458.486C1.31429 458.517 1.25244 458.533 1.25244 458.533L13.9624 451.482C18.7557 446.998 24.3221 444.818 30.6616 444.941C34.2489 445.127 37.5423 446.132 40.542 447.957C43.5417 449.75 45.861 452.147 47.5 455.146C49.139 458.332 49.7884 461.672 49.4482 465.166C49.1081 468.66 47.8402 471.753 45.6445 474.443C43.9746 476.361 41.8563 477.737 39.2896 478.572C38.3309 478.943 37.3258 479.128 36.2744 479.128C33.9551 479.128 31.9759 478.309 30.3369 476.67C28.6979 475 27.8784 473.005 27.8784 470.686C27.8784 468.367 28.6979 466.388 30.3369 464.749C31.9759 463.079 33.9551 462.244 36.2744 462.244C38.6247 462.244 40.6193 463.079 42.2583 464.749C43.8973 466.388 44.7168 468.367 44.7168 470.686C44.7168 471.49 44.6086 472.263 44.3921 473.005C46.2785 470.624 47.3454 467.903 47.5928 464.841C47.8711 461.749 47.299 458.811 45.8765 456.028C44.3612 453.306 42.2428 451.126 39.5215 449.487C36.8311 447.848 33.8623 446.951 30.6152 446.797C26.7806 446.704 23.1315 447.632 19.668 449.58V556.362ZM31.1719 557.893V515.217C31.1719 512.96 31.11 510.996 30.9863 509.326C30.8936 507.625 30.7544 506.172 30.5688 504.966C30.3833 503.76 30.1668 502.77 29.9194 501.997C29.703 501.224 29.4556 500.605 29.1772 500.142C28.9299 499.678 28.6825 499.353 28.4351 499.167C28.2186 498.951 28.0021 498.812 27.7856 498.75C27.6001 498.688 27.4455 498.673 27.3218 498.704C27.1981 498.735 27.1208 498.765 27.0898 498.796L45.5054 488.591V556.362C45.5363 558.28 45.6909 560.29 45.9692 562.393C46.2476 564.465 46.696 566.258 47.3145 567.773C47.9639 569.258 48.8761 570 50.0513 570H26.7188C27.7702 570 28.6051 569.382 29.2236 568.145C29.8421 566.877 30.2905 565.315 30.5688 563.459C30.8781 561.604 31.0791 559.749 31.1719 557.893ZM194.453 542.957C194.453 542.957 194.747 542.957 195.334 542.957C195.953 542.957 196.68 542.957 197.515 542.957C198.381 542.957 199.185 542.957 199.927 542.957C200.7 542.957 201.287 542.957 201.689 542.957C200.236 547.75 197.994 552.141 194.963 556.13C191.964 560.12 188.33 563.429 184.062 566.057C176.424 570.448 168.461 571.995 160.173 570.696C151.917 569.397 144.742 565.593 138.65 559.285C132.836 552.883 129.249 545.461 127.888 537.019C126.528 528.577 127.517 520.382 130.857 512.434C130.857 512.403 130.857 512.388 130.857 512.388C134.166 504.409 139.454 498.085 146.721 493.416C150.37 491.189 154.282 489.627 158.457 488.73C160.776 488.298 163.08 488.097 165.369 488.127C167.688 488.158 170.023 488.328 172.373 488.638C179.888 490.246 186.289 493.756 191.577 499.167C196.896 504.548 200.561 510.903 202.571 518.232C201.767 518.232 198.628 518.232 193.154 518.232C187.681 518.232 181.372 518.232 174.229 518.232C167.085 518.232 160.514 518.232 154.514 518.232C148.515 518.232 144.34 518.232 141.99 518.232C141.928 524.325 142.809 530.278 144.634 536.091C144.634 536.091 144.649 536.153 144.68 536.277C144.742 536.37 144.804 536.509 144.866 536.694C144.928 536.88 144.974 537.065 145.005 537.251C145.067 537.406 145.113 537.545 145.144 537.668C145.206 537.792 145.237 537.854 145.237 537.854C146.659 542.153 148.577 546.25 150.989 550.146C153.401 554.043 156.323 557.46 159.756 560.398C162.57 562.841 165.755 564.666 169.312 565.872C172.899 567.078 176.517 567.062 180.166 565.825C180.568 565.671 180.955 565.516 181.326 565.361C182.439 564.805 183.506 564.186 184.526 563.506C190.093 559.146 193.402 552.296 194.453 542.957ZM142.036 516.377H193.525C191.732 509.976 188.655 504.27 184.294 499.26C182.377 497.096 180.212 495.225 177.8 493.647C175.419 492.07 172.806 491.003 169.961 490.447C164.271 489.457 158.844 490.153 153.679 492.534C150.865 494.019 148.623 496.075 146.953 498.704C145.314 501.301 144.108 504.162 143.335 507.285C142.593 510.378 142.16 513.408 142.036 516.377ZM122.739 558.542C128.182 564.913 133.393 570.232 138.372 574.5C143.381 578.798 148.082 582.246 152.473 584.844C156.864 587.472 160.838 589.451 164.395 590.781C167.982 592.111 171.059 593.008 173.625 593.472C176.223 593.936 178.218 594.167 179.609 594.167C181.032 594.167 181.743 594.167 181.743 594.167V609.568C174.445 609.444 167.085 607.743 159.663 604.465C152.272 601.187 145.036 596.904 137.954 591.616C130.903 586.328 124.239 580.607 117.961 574.453C111.684 568.33 106.025 562.362 100.984 556.548C95.9432 550.734 91.7529 545.632 88.4131 541.24L88.3667 541.194C88.1502 540.946 87.9492 540.699 87.7637 540.452L76.5381 525.933L75.5176 524.727C74.0641 526.458 72.8426 527.958 71.853 529.226V556.548C71.884 558.496 72.0386 560.522 72.3169 562.625C72.5952 564.696 73.0436 566.49 73.6621 568.005C74.3115 569.49 75.2083 570.232 76.3525 570.232H53.0664C54.1178 570.232 54.9528 569.598 55.5713 568.33C56.1898 567.062 56.6382 565.516 56.9165 563.691C57.2257 561.836 57.4268 559.98 57.5195 558.125V475.186C57.5195 472.928 57.4577 470.964 57.334 469.294C57.2412 467.594 57.1021 466.14 56.9165 464.934C56.731 463.728 56.5145 462.738 56.2671 461.965C56.0506 461.192 55.8032 460.574 55.5249 460.11C55.2775 459.646 55.0301 459.321 54.7827 459.136C54.5662 458.919 54.3498 458.78 54.1333 458.718C53.9478 458.656 53.7777 458.641 53.623 458.672C53.4993 458.703 53.4375 458.734 53.4375 458.765L71.853 448.56V526.257C72.5643 525.391 73.3529 524.448 74.2188 523.428C77.4349 519.655 80.7284 516.114 84.0991 512.805C89.882 507.053 95.5721 502.291 101.169 498.518C108.189 493.787 114.823 490.741 121.069 489.38C123.512 488.885 125.878 488.638 128.167 488.638V503.296C128.167 503.296 126.976 503.095 124.595 502.693C122.214 502.291 119.137 502.09 115.364 502.09C111.591 502.059 107.524 502.554 103.164 503.574C98.8037 504.595 94.5825 506.497 90.5005 509.28C88.6759 510.919 86.9751 512.527 85.3979 514.104C85.367 514.104 85.3516 514.119 85.3516 514.15L122.739 558.542Z" fill="#2A343E"/>
</svg>
