<svg width="232" height="72" viewBox="0 0 232 72" fill="none" xmlns="http://www.w3.org/2000/svg">
<path d="M67.6963 30.375C69.2275 35.0781 68.9199 39.665 66.7734 44.1357C64.5312 48.5381 61.0723 51.5596 56.3965 53.2002C51.6934 54.7314 47.1064 54.4238 42.6357 52.2773C38.2197 50.0352 35.1982 46.5762 33.5713 41.9004C32.04 37.1836 32.3477 32.5967 34.4941 28.1396C36.7363 23.7236 40.1953 20.6953 44.8711 19.0547C49.5742 17.5371 54.1611 17.8447 58.6318 19.9775C63.0342 22.2334 66.0557 25.6992 67.6963 30.375ZM57.6475 51.8262C59.917 50.3223 61.3457 47.8135 61.9336 44.2998C62.5352 40.7861 62.1523 36.917 60.7852 32.6924C59.3359 28.5771 57.3398 25.3096 54.7969 22.8896C52.2676 20.4561 49.6631 19.2666 46.9834 19.3213C46.3682 19.458 45.7529 19.6289 45.1377 19.834C44.5771 20.0254 44.0303 20.2441 43.4971 20.4902C41.3232 22.0488 39.9561 24.5713 39.3955 28.0576C38.835 31.5303 39.2314 35.3447 40.585 39.501C42.0615 43.7119 44.1055 47.0342 46.7168 49.4678C49.3281 51.9014 52.001 53.0225 54.7354 52.8311C55.2002 52.7217 55.665 52.585 56.1299 52.4209C56.6494 52.2432 57.1553 52.0449 57.6475 51.8262ZM31.5 48.9756C33.9062 51.792 36.21 54.1436 38.4111 56.0303C40.626 57.9307 42.7041 59.4551 44.6455 60.6035C46.5869 61.7656 48.3438 62.6406 49.916 63.2285C51.502 63.8164 52.8623 64.2129 53.9971 64.418C55.1455 64.623 56.0273 64.7256 56.6426 64.7256C57.2715 64.7256 57.5859 64.7256 57.5859 64.7256V71.5342C54.3594 71.4795 51.1055 70.7275 47.8242 69.2783C44.5566 67.8291 41.3574 65.9355 38.2266 63.5977C35.1094 61.2598 32.1631 58.7305 29.3877 56.0098C26.6123 53.3027 24.1104 50.6641 21.8818 48.0938C19.6533 45.5234 17.8008 43.2676 16.3242 41.3262H16.3037C16.208 41.2031 16.1191 41.0801 16.0371 40.957L11.0742 34.5586L10.623 34.0254C9.98047 34.791 9.44043 35.4541 9.00293 36.0146V48.0938C9.0166 48.9551 9.08496 49.8506 9.20801 50.7803C9.33105 51.6963 9.5293 52.4893 9.80273 53.1592C10.0898 53.8154 10.4863 54.1436 10.9922 54.1436H0.697266C1.16211 54.1436 1.53125 53.8633 1.80469 53.3027C2.07812 52.7422 2.27637 52.0586 2.39941 51.252C2.53613 50.4316 2.625 49.6113 2.66602 48.791V12.123C2.66602 11.125 2.63867 10.2568 2.58398 9.51855C2.54297 8.7666 2.48145 8.12402 2.39941 7.59082C2.31738 7.05762 2.22168 6.62012 2.1123 6.27832C2.0166 5.93652 1.90723 5.66309 1.78418 5.45801C1.6748 5.25293 1.56543 5.10938 1.45605 5.02734C1.36035 4.93164 1.26465 4.87012 1.16895 4.84277C1.08691 4.81543 1.01172 4.80859 0.943359 4.82227C0.888672 4.83594 0.861328 4.84961 0.861328 4.86328L9.00293 0.351562V34.7021C9.31738 34.3193 9.66602 33.9023 10.0488 33.4512C11.4707 31.7832 12.9268 30.2178 14.417 28.7549C16.9736 26.2119 19.4893 24.1064 21.9639 22.4385C25.0674 20.3467 28 19 30.7617 18.3984C31.8418 18.1797 32.8877 18.0703 33.8994 18.0703V24.5508C33.8994 24.5508 33.373 24.4619 32.3203 24.2842C31.2676 24.1064 29.9072 24.0176 28.2393 24.0176C26.5713 24.0039 24.7734 24.2227 22.8457 24.6738C20.918 25.125 19.0518 25.9658 17.2471 27.1963C16.4404 27.9209 15.6885 28.6318 14.9912 29.3291C14.9775 29.3291 14.9707 29.3291 14.9707 29.3291C14.9707 29.3428 14.9707 29.3496 14.9707 29.3496L31.5 48.9756ZM136.562 30.375C138.093 35.0781 137.785 39.665 135.639 44.1357C133.396 48.5381 129.938 51.5596 125.262 53.2002C120.559 54.7314 115.972 54.4238 111.501 52.2773C107.085 50.0352 104.063 46.5762 102.437 41.9004C100.905 37.1836 101.213 32.5967 103.359 28.1396C105.602 23.7236 109.061 20.6953 113.736 19.0547C118.439 17.5371 123.026 17.8447 127.497 19.9775C131.899 22.2334 134.921 25.6992 136.562 30.375ZM126.513 51.8262C128.782 50.3223 130.211 47.8135 130.799 44.2998C131.4 40.7861 131.018 36.917 129.65 32.6924C128.201 28.5771 126.205 25.3096 123.662 22.8896C121.133 20.4561 118.528 19.2666 115.849 19.3213C115.233 19.458 114.618 19.6289 114.003 19.834C113.442 20.0254 112.896 20.2441 112.362 20.4902C110.188 22.0488 108.821 24.5713 108.261 28.0576C107.7 31.5303 108.097 35.3447 109.45 39.501C110.927 43.7119 112.971 47.0342 115.582 49.4678C118.193 51.9014 120.866 53.0225 123.601 52.8311C124.065 52.7217 124.53 52.585 124.995 52.4209C125.515 52.2432 126.021 52.0449 126.513 51.8262ZM100.365 48.9756C102.771 51.792 105.075 54.1436 107.276 56.0303C109.491 57.9307 111.569 59.4551 113.511 60.6035C115.452 61.7656 117.209 62.6406 118.781 63.2285C120.367 63.8164 121.728 64.2129 122.862 64.418C124.011 64.623 124.893 64.7256 125.508 64.7256C126.137 64.7256 126.451 64.7256 126.451 64.7256V71.5342C123.225 71.4795 119.971 70.7275 116.689 69.2783C113.422 67.8291 110.223 65.9355 107.092 63.5977C103.975 61.2598 101.028 58.7305 98.2529 56.0098C95.4775 53.3027 92.9756 50.6641 90.7471 48.0938C88.5186 45.5234 86.666 43.2676 85.1895 41.3262H85.1689C85.0732 41.2031 84.9844 41.0801 84.9023 40.957L79.9395 34.5586L79.4883 34.0254C78.8457 34.791 78.3057 35.4541 77.8682 36.0146V48.0938C77.8818 48.9551 77.9502 49.8506 78.0732 50.7803C78.1963 51.6963 78.3945 52.4893 78.668 53.1592C78.9551 53.8154 79.3516 54.1436 79.8574 54.1436H69.5625C70.0273 54.1436 70.3965 53.8633 70.6699 53.3027C70.9434 52.7422 71.1416 52.0586 71.2646 51.252C71.4014 50.4316 71.4902 49.6113 71.5312 48.791V12.123C71.5312 11.125 71.5039 10.2568 71.4492 9.51855C71.4082 8.7666 71.3467 8.12402 71.2646 7.59082C71.1826 7.05762 71.0869 6.62012 70.9775 6.27832C70.8818 5.93652 70.7725 5.66309 70.6494 5.45801C70.54 5.25293 70.4307 5.10938 70.3213 5.02734C70.2256 4.93164 70.1299 4.87012 70.0342 4.84277C69.9521 4.81543 69.877 4.80859 69.8086 4.82227C69.7539 4.83594 69.7266 4.84961 69.7266 4.86328L77.8682 0.351562V34.7021C78.1826 34.3193 78.5312 33.9023 78.9141 33.4512C80.3359 31.7832 81.792 30.2178 83.2822 28.7549C85.8389 26.2119 88.3545 24.1064 90.8291 22.4385C93.9326 20.3467 96.8652 19 99.627 18.3984C100.707 18.1797 101.753 18.0703 102.765 18.0703V24.5508C102.765 24.5508 102.238 24.4619 101.186 24.2842C100.133 24.1064 98.7725 24.0176 97.1045 24.0176C95.4365 24.0039 93.6387 24.2227 91.7109 24.6738C89.7832 25.125 87.917 25.9658 86.1123 27.1963C85.3057 27.9209 84.5537 28.6318 83.8564 29.3291C83.8428 29.3291 83.8359 29.3291 83.8359 29.3291C83.8359 29.3428 83.8359 29.3496 83.8359 29.3496L100.365 48.9756ZM162.709 54.0205C163.174 54.0205 163.543 53.7471 163.816 53.2002C164.09 52.6396 164.288 51.9561 164.411 51.1494C164.548 50.3291 164.637 49.5088 164.678 48.6885V24.7559C164.678 23.4707 164.493 22.4316 164.124 21.6387C163.755 20.832 163.276 20.2168 162.688 19.793C162.114 19.3691 161.499 19.082 160.843 18.9316C160.187 18.7676 159.564 18.6924 158.977 18.7061C158.389 18.7061 157.896 18.7402 157.5 18.8086C155.695 19.1367 154.096 19.6016 152.701 20.2031C151.307 20.791 150.131 21.3926 149.174 22.0078C147.984 22.7734 147.041 23.4775 146.344 24.1201V47.9912C146.357 48.8389 146.426 49.7275 146.549 50.6572C146.672 51.5732 146.87 52.3662 147.144 53.0361C147.431 53.6924 147.827 54.0205 148.333 54.0205H138.038C138.503 54.0205 138.872 53.7471 139.146 53.2002C139.419 52.6396 139.617 51.9561 139.74 51.1494C139.877 50.3291 139.966 49.5088 140.007 48.6885V29.8008C140.007 28.8027 139.979 27.9346 139.925 27.1963C139.884 26.4443 139.822 25.8086 139.74 25.2891C139.658 24.7559 139.562 24.3184 139.453 23.9766C139.357 23.6211 139.248 23.3477 139.125 23.1562C139.016 22.9512 138.906 22.8008 138.797 22.7051C138.701 22.6094 138.605 22.5547 138.51 22.541C138.428 22.5137 138.353 22.5068 138.284 22.5205C138.229 22.5205 138.202 22.5273 138.202 22.541L140.007 21.5361L146.344 18.0293V23.0332C146.986 22.5 147.772 21.9326 148.702 21.3311C150.028 20.4561 151.751 19.6426 153.87 18.8906C155.989 18.125 158.464 17.708 161.294 17.6396C162.538 17.626 163.666 17.7559 164.678 18.0293C166.318 18.4805 167.658 19.2939 168.697 20.4697C169.572 21.5225 170.174 22.6436 170.502 23.833C170.83 25.0088 170.994 26.0615 170.994 26.9912C171.008 27.4014 171.008 27.7568 170.994 28.0576V47.9912C171.021 48.8389 171.097 49.7275 171.22 50.6572C171.343 51.5732 171.541 52.3662 171.814 53.0361C172.102 53.6924 172.498 54.0205 173.004 54.0205H162.709ZM203.314 50.8008C203.246 50.9238 203.137 51.1289 202.986 51.416C202.836 51.6895 202.665 51.9971 202.474 52.3389C202.269 52.7217 202.077 53.0703 201.899 53.3848C201.735 53.6992 201.619 53.918 201.551 54.041C201.551 54.041 201.325 54.0479 200.874 54.0615C200.423 54.0889 199.869 54.0889 199.213 54.0615C198.57 54.0342 197.941 53.9658 197.326 53.8564C196.711 53.7334 196.226 53.5352 195.87 53.2617C195.241 52.7012 194.865 51.9971 194.742 51.1494C194.633 50.2881 194.605 49.4268 194.66 48.5654C194.674 48.2373 194.681 47.9297 194.681 47.6426C193.847 49.3379 192.65 50.7188 191.092 51.7852C189.533 52.8379 187.824 53.5078 185.965 53.7949C184.27 54.0684 182.574 54.0205 180.879 53.6514C179.197 53.2822 177.687 52.5439 176.347 51.4365C174.966 50.2334 174.036 48.7705 173.558 47.0479C173.093 45.3115 173.223 43.5889 173.947 41.8799C174.768 40.2119 175.971 38.8994 177.557 37.9424C179.143 36.9854 180.79 36.2266 182.499 35.666C184.386 34.9961 186.272 34.333 188.159 33.6768C190.333 32.9248 192.5 32.166 194.66 31.4004C194.66 29.6367 194.66 27.8799 194.66 26.1299C194.66 25.7744 194.667 25.4121 194.681 25.043C194.749 24.0859 194.715 23.1494 194.578 22.2334C194.332 21.1123 193.806 20.3467 192.999 19.9365C192.192 19.5127 191.27 19.2734 190.23 19.2188C188.549 19.0684 186.833 19.2324 185.083 19.7109C183.347 20.1758 181.897 21.0576 180.735 22.3564C180.599 22.0693 180.462 21.7891 180.325 21.5156C179.819 20.5039 179.32 19.4922 178.828 18.4805L178.787 18.3779C179.607 18.3232 180.435 18.2617 181.269 18.1934C183.538 17.9746 185.821 17.8926 188.118 17.9473C190.415 18.002 192.603 18.4805 194.681 19.3828C196.567 20.2305 198.078 21.4746 199.213 23.1152C200.348 24.7422 200.949 26.5947 201.018 28.6729C201.045 30.4092 201.052 32.8359 201.038 35.9531C201.038 39.0703 201.031 41.8252 201.018 44.2178C201.018 45.626 201.018 46.5625 201.018 47.0273C201.018 47.1094 201.018 47.1846 201.018 47.2529C201.004 47.8408 201.031 48.4492 201.1 49.0781C201.168 49.6934 201.366 50.1855 201.694 50.5547C202.022 50.9238 202.562 51.0059 203.314 50.8008ZM194.373 46.4121C194.469 46.1797 194.564 45.9473 194.66 45.7148V32.2617C194.1 32.4531 193.539 32.6514 192.979 32.8564C191.748 33.2939 190.518 33.7314 189.287 34.1689C188.768 34.3467 188.241 34.5176 187.708 34.6816C186.614 34.9824 185.562 35.3721 184.55 35.8506C183.374 36.4932 182.424 37.4434 181.699 38.7012C180.988 39.959 180.558 41.2373 180.407 42.5361C180.175 45.1338 180.817 47.4922 182.335 49.6113C183.087 50.6367 184.003 51.4775 185.083 52.1338C185.726 52.4893 186.389 52.6465 187.072 52.6055C187.756 52.5508 188.419 52.373 189.062 52.0723C190.306 51.5117 191.365 50.7393 192.24 49.7549C193.115 48.7568 193.826 47.6426 194.373 46.4121ZM212.912 17.8857V47.8887C212.926 49.2832 213.09 50.6436 213.404 51.9697C214.676 52.6943 216.05 53.0566 217.526 53.0566C217.772 53.0566 218.025 53.043 218.285 53.0156V53.8564C218.025 53.8701 217.772 53.877 217.526 53.877C216.228 53.877 214.99 53.6104 213.814 53.0771C211.777 52.1611 210.103 50.6641 208.79 48.5859C207.491 46.5078 206.753 44.1016 206.575 41.3672C206.562 41.0664 206.555 40.7588 206.555 40.4443C206.555 40.376 206.555 39.1934 206.555 36.8965C206.555 34.5859 206.555 31.9746 206.555 29.0625C206.568 26.1504 206.575 23.5596 206.575 21.29C206.575 19.0205 206.575 17.8857 206.575 17.8857H198.823V17.0654H206.575V11.918C206.575 10.9062 206.548 10.0312 206.493 9.29297C206.452 8.54102 206.391 7.90527 206.309 7.38574C206.227 6.85254 206.131 6.41504 206.021 6.07324C205.926 5.71777 205.816 5.44434 205.693 5.25293C205.584 5.04785 205.475 4.89746 205.365 4.80176C205.27 4.70605 205.174 4.65137 205.078 4.6377C204.996 4.61035 204.921 4.60352 204.853 4.61719C204.798 4.63086 204.764 4.6377 204.75 4.6377L206.575 3.65332L212.912 0.125977V17.0654H221.259V17.8857H212.912ZM223.556 44.9355V33.7793V29.8008C223.556 28.8027 223.528 27.9346 223.474 27.1963C223.433 26.4443 223.371 25.8086 223.289 25.2891C223.207 24.7559 223.111 24.3184 223.002 23.9766C222.906 23.6211 222.797 23.3477 222.674 23.1562C222.564 22.9512 222.455 22.8008 222.346 22.7051C222.25 22.6094 222.154 22.5547 222.059 22.541C221.977 22.5137 221.901 22.5068 221.833 22.5205C221.778 22.5205 221.751 22.5273 221.751 22.541L223.556 21.5361L229.893 18.0293V33.7793V44.9355V47.9912C229.906 48.8389 229.975 49.7275 230.098 50.6572C230.221 51.5732 230.419 52.3662 230.692 53.0361C230.979 53.6924 231.376 54.0205 231.882 54.0205H221.587C222.052 54.0205 222.421 53.7471 222.694 53.2002C222.968 52.6396 223.166 51.9561 223.289 51.1494C223.426 50.3291 223.515 49.5088 223.556 48.6885V44.9355ZM225.812 13.8457C224.786 13.8457 223.904 13.4834 223.166 12.7588C222.441 12.0205 222.079 11.1387 222.079 10.1133C222.079 9.08789 222.441 8.21289 223.166 7.48828C223.904 6.75 224.786 6.38086 225.812 6.38086C226.837 6.38086 227.712 6.75 228.437 7.48828C229.175 8.21289 229.544 9.08789 229.544 10.1133C229.544 11.1387 229.175 12.0205 228.437 12.7588C227.712 13.4834 226.837 13.8457 225.812 13.8457Z" fill="#2A343E"/>
</svg>
